<svg xmlns="http://www.w3.org/2000/svg" xmlns:xlink="http://www.w3.org/1999/xlink" version="1.1" id="Layer_2_1_" x="0px"
    y="0px" viewBox="0 0 691.5 172" style="enable-background:new 0 0 691.5 172;" xml:space="preserve">
    <style type="text/css">
        .st0 {
            fill: #D50032;
        }
    </style>
    <g>
        <g>
            <path class="st0"
                d="M60.1,40.3c0,0.2-0.1,0.3-0.1,0.5l0,0l0,0c-0.2,0.9-0.3,1.9-0.4,2.9v0.1c0,0.4,0,0.7-0.1,1c0,0.6,0,1.3,0,1.8    l0,0c3.9-0.5,8-0.8,12.4-1c0.9-1.5,1.7-3.8,2.3-4.8l0.1-0.2c0.3-0.5,0.6-1.1,1.1-1.7c-5,0.1-10,0.4-14.9,0.9    C60.4,40,60.2,40.1,60.1,40.3z" />
            <path class="st0"
                d="M124.1,47.5c0.4,0.3,0.8,0.6,1.2,1l0,0l0,0c0.2,0.1,0.3,0.3,0.5,0.5l0.1,0.1c0.1,0.1,0.3,0.3,0.4,0.4v-0.2    l0.3-1.6c-0.4-0.2-0.9-0.4-1.4-0.7c-0.5-0.2-1-0.5-1.4-0.7l0,0l0,0c-0.5-0.3-0.9-0.5-1.2-0.7c-0.1-0.1-0.2-0.1-0.4-0.2    c-0.9-0.3-2-1-3.1-1.9c0.1,0.3,0.2,0.6,0.2,1c0,0.3,0,0.6-0.1,0.9c0.7,0.2,1.5,0.4,2.2,0.7h0.1c0.2,0.1,0.3,0.2,0.5,0.2h0.1    C122.7,46.6,123.4,47,124.1,47.5L124.1,47.5z" />
            <path class="st0"
                d="M141.3,47.3c0.2,1.5,0.3,2.8,0.6,4.4c0.1,0.3,0.1,0.6,0.2,1c6,1.4,12,3,17.7,4.7c0.1,0,0.3-0.1,0.4-0.1h0.1    c-0.1-0.2-0.2-0.5-0.3-0.8s-0.3-0.6-0.4-0.9v-0.1c-0.1-0.2-0.2-0.3-0.2-0.5l-0.2-0.4l-0.2-0.4c-0.2-0.4-0.4-0.8-0.5-1.1l-0.1-0.3    c0-0.1-0.1-0.2-0.1-0.3c-0.3-0.6-0.6-1.1-0.9-1.7c-5.2-1.6-10.6-3-16.1-4.3v0.4V47.3z" />
            <path class="st0"
                d="M95.1,39.4c-0.6,0-1.3-0.1-1.9-0.1c0.3,0.3,0.6,0.7,0.9,1C94.5,40,94.8,39.7,95.1,39.4z" />
            <path class="st0"
                d="M173.7,58.1L173.7,58.1c-0.2,0.1-0.4,0.2-0.6,0.4c-0.2,0.1-0.4,0.2-0.6,0.3h-0.1h-0.1    c-0.1,0.1-0.3,0.1-0.4,0.2c-0.3,0.2-0.7,0.3-1,0.5l-0.1,0.1c-0.1,0-0.2,0.1-0.3,0.1c-0.3,0.2-0.7,0.3-1,0.5l-0.1,0.1    c-0.1,0-0.2,0.1-0.3,0.1H169c4.5,1.6,8.8,3.4,12.9,5.3c-0.1-0.4-0.2-0.8-0.2-1.3v-0.2c0-0.1,0-0.2,0-0.3c-0.1-0.6-0.2-1.3-0.3-2    c0-0.3-0.1-0.6-0.1-0.8v-0.2c-0.1-0.4-0.1-0.8-0.2-1.2c0-0.2,0-0.3-0.1-0.5c-1.8-0.8-3.7-1.5-5.6-2.3c0,0,0,0-0.1,0.1    s-0.2,0.1-0.3,0.2l-0.1,0.1c-0.2,0.2-0.5,0.3-0.7,0.5C174.1,57.9,173.9,58,173.7,58.1L173.7,58.1z" />
            <path class="st0"
                d="M165.3,53.6c0.3,0.6,0.5,1.2,0.8,1.7c0.1,0,0.2-0.1,0.3-0.1c0.1-0.1,0.3-0.1,0.4-0.2l0.1-0.1l0,0    c0.2-0.1,0.3-0.1,0.5-0.2s0.4-0.2,0.6-0.3l0.3-0.1l0,0c-1-0.4-2.1-0.7-3.1-1.1C165.2,53.4,165.3,53.5,165.3,53.6z" />
            <path class="st0"
                d="M103.4,40.1c-1,0.9-2.1,1.7-3.1,2.6c1.3-0.4,2.4-0.7,3.6-0.7c0.7,0,1.4,0.1,2,0.2c-0.6-0.6-1.1-1.3-1.4-2    C104.2,40.2,103.8,40.1,103.4,40.1z" />
            <path class="st0" d="M160.5,42.5c-0.1,2.2,0.7,3.4,2.4,4.6C164,45.3,163.8,43.9,160.5,42.5z" />
            <path class="st0"
                d="M160.1,40.8c0.8-0.1,6.1,3.3,6.6,4.3c0.9-4.3-1.5-9.2-6.2-6c-0.6-0.5-1.5-0.7-2.2-1.2    C158.2,38,159.3,41.4,160.1,40.8z" />
            <path class="st0"
                d="M111.5,34.6c-0.2,0.6-0.2,2.9,1.5,2c-1.5,1.4-5.9,2.4-6.4,2.5c0.6,3,7.1,4.8,9.5,2.6c0.2-1,0.2-1.3,0.1-1.7    C117.1,36,117.4,29.7,111.5,34.6z" />
            <path class="st0"
                d="M142.3,72.5c-1.1-2.2-1.7-2.2-1.7-3.1c-0.8,1.8-5.3,5.3-5.4,7.1c1.5-0.1,5.1-0.3,5.7,0.6c2-1,1.2-1.2,3-0.9    c-0.1-0.5-0.1-3.1-0.2-3.6C143.4,73.2,142.1,72.2,142.3,72.5z" />
            <path class="st0"
                d="M137.5,124.3L137.5,124.3c-0.8,0.4-1.6,0.8-2.4,1.2c-0.8,0.3-1.7,0.6-2.5,1.1l0,0c-1.1,0.5-2.2,0.9-3.3,1.4    c11.8,1.6,23.3,2.1,33.9,1.8c-0.3-1.1-0.4-2.6-0.1-3.3c-0.2-0.2-0.4-0.3-0.6-0.5c-0.1,0-0.1-0.1-0.2-0.1c-0.2-0.1-0.3-0.2-0.5-0.3    c0,0-0.1,0-0.1-0.1c-0.2-0.1-0.4-0.2-0.7-0.3c-0.1,0-0.1,0-0.2-0.1c-0.2-0.1-0.4-0.1-0.6-0.2c-0.1,0-0.1,0-0.2,0    c-0.2-0.1-0.5-0.1-0.7-0.1c-0.1,0-0.2,0-0.2,0c-0.2,0-0.4,0-0.6-0.1c-0.1,0-0.2,0-0.3,0c-0.2,0-0.5,0-0.7,0c-0.1,0-0.2,0-0.3,0    c-0.2,0-0.4,0-0.6,0c-0.1,0-0.1,0-0.2,0h-0.1c-0.4,0-0.8,0-1.2,0H155c-0.4,0-0.9,0-1.3,0.1c-0.3,0-0.7,0-1,0.1h-0.1    c-0.1,0-0.3,0-0.4,0s-0.3,0-0.4,0s-0.1,0-0.2,0s-0.3,0-0.4,0s-0.1,0-0.2,0s-0.2,0-0.4,0c-0.1,0-0.1,0-0.2,0c-0.2,0-0.3,0-0.5,0    c0,0,0,0-0.1,0s-0.3,0-0.4-0.1h-0.1c-0.1,0-0.2,0-0.3-0.1h-0.1c-0.1,0-0.2-0.1-0.4-0.1l0,0c-0.1,0-0.2-0.1-0.3-0.1    c0,0-0.1,0-0.1-0.1c-0.1,0-0.1-0.1-0.2-0.2c0,0,0,0-0.1-0.1s-0.1-0.2-0.2-0.3c-0.4,0.1-0.8,0.1-1.2,0.2l0,0    c-2.2,0.3-4.4,0.8-6.2,1.2c-0.3,0.1-0.6,0.1-0.9,0.2c-0.2,0-0.4,0.1-0.5,0.1s-0.1,0-0.2,0l0.1-0.1L137.5,124.3z" />
            <path class="st0" d="M108.9,145l0.5-2.2c-3.1-0.6-6.2-1.3-9.3-2.1l1.4,1.8L108.9,145L108.9,145z" />
            <path class="st0"
                d="M131.5,167.3c0.4,0,0.8-0.1,1.2-0.1c0.3,0,0.5-0.1,0.8-0.1c0.4-0.1,0.8-0.1,1.2-0.2c0.2,0,0.5-0.1,0.7-0.1    c0.4-0.1,0.9-0.1,1.3-0.2c0.2,0,0.4-0.1,0.6-0.1c0.5-0.1,1.1-0.2,1.6-0.3c0.1,0,0.2,0,0.3-0.1c0.6-0.1,1.3-0.3,1.9-0.4    c0.2,0,0.3-0.1,0.5-0.1c0.5-0.1,0.9-0.2,1.4-0.3c0.2-0.1,0.5-0.1,0.7-0.2c0.4-0.1,0.8-0.2,1.2-0.3c0.3-0.1,0.5-0.1,0.8-0.2    c0.4-0.1,0.7-0.2,1.1-0.3c0.3-0.1,0.5-0.2,0.8-0.2c0.4-0.1,0.7-0.2,1.1-0.3c0.3-0.1,0.5-0.2,0.8-0.3s0.7-0.2,1-0.4    c0.3-0.1,0.5-0.2,0.8-0.3c0.4-0.1,0.7-0.3,1.1-0.4c0.3-0.1,0.5-0.2,0.8-0.3c0.4-0.1,0.8-0.3,1.1-0.5c0.2-0.1,0.4-0.2,0.6-0.3    c0.6-0.2,1.2-0.5,1.7-0.7c0.2-0.1,0.4-0.2,0.6-0.3c0.4-0.2,0.8-0.3,1.1-0.5c0.3-0.1,0.5-0.2,0.8-0.4s0.6-0.3,1-0.5    c0.3-0.1,0.5-0.3,0.8-0.4c0.3-0.2,0.6-0.3,0.9-0.5c0.3-0.1,0.5-0.3,0.8-0.4c0.3-0.2,0.6-0.3,0.9-0.5c0.3-0.1,0.5-0.3,0.8-0.4    c0.3-0.2,0.6-0.3,0.9-0.5s0.5-0.3,0.8-0.5s0.6-0.4,0.9-0.5c0.2-0.2,0.5-0.3,0.7-0.5c0.3-0.2,0.6-0.4,1-0.6    c0.2-0.1,0.4-0.3,0.7-0.4c0.5-0.3,0.9-0.6,1.4-0.9c0.2-0.1,0.4-0.3,0.5-0.4c0.4-0.3,0.8-0.6,1.2-0.8c0.2-0.1,0.4-0.3,0.6-0.4    c0.3-0.2,0.6-0.5,0.9-0.7c0.2-0.2,0.4-0.3,0.6-0.5c0.3-0.2,0.6-0.5,0.9-0.7c0.2-0.2,0.4-0.3,0.6-0.5c0.2-0.1,0.3-0.3,0.5-0.4    c-4.1,0.3-8.3,0.4-12.6,0.4c-11.5,0-23.8-0.9-36.4-2.7c1.5,1,3.4,2,5.4,3.1c1.2,0.6,2.4,1.3,3.5,1.9c0,0,0,0,0.1,0    c0.1,0.1,0.3,0.2,0.4,0.2s0.1,0.1,0.1,0.1c0.1,0.1,0.2,0.1,0.3,0.2c0.1,0,0.1,0.1,0.2,0.1c0.1,0.1,0.2,0.1,0.3,0.2    c0.1,0,0.1,0.1,0.2,0.1c0.2,0.1,0.3,0.2,0.5,0.4c0.1,0.1,0.2,0.1,0.2,0.2c0.1,0.1,0.2,0.1,0.2,0.2c0.1,0.1,0.2,0.1,0.2,0.2    c0.1,0.1,0.1,0.1,0.2,0.2s0.1,0.1,0.2,0.2s0.1,0.1,0.2,0.2s0.2,0.1,0.2,0.2l0.1,0.1c0.1,0.1,0.2,0.2,0.3,0.3l0.1,0.1    c0.1,0.1,0.1,0.2,0.2,0.2l0.1,0.1c0.1,0.1,0.1,0.1,0.2,0.2c0,0,0.1,0.1,0.1,0.2c0.1,0.1,0.1,0.2,0.1,0.2l0.1,0.1    c0.1,0.1,0.1,0.2,0.2,0.3c0,0,0,0,0,0.1c0.1,0.1,0.1,0.3,0.1,0.4v0.1c0,0.1,0,0.2,0.1,0.3v0.1c0,0.1,0,0.2,0,0.3v0.1    c0,0.1,0,0.2,0,0.3v0.1c0,0.1,0,0.3-0.1,0.4c0,0,0,0,0,0.1s-0.1,0.2-0.1,0.3c0,0,0,0.1-0.1,0.1c0,0.1-0.1,0.2-0.1,0.3    s-0.1,0.1-0.1,0.2c-0.1,0.1-0.1,0.2-0.2,0.3l-0.1,0.1c-0.1,0.1-0.2,0.2-0.3,0.3c0,0,0,0.1-0.1,0.1c-0.1,0.1-0.3,0.3-0.4,0.4    l-0.1,0.1c-0.1,0.1-0.2,0.2-0.4,0.3c-0.1,0.1-0.1,0.1-0.2,0.2s-0.2,0.2-0.4,0.3c-0.1,0.1-0.1,0.1-0.2,0.2s-0.3,0.2-0.5,0.3    c-0.1,0-0.1,0.1-0.2,0.1c-0.2,0.2-0.5,0.3-0.7,0.5h0.1l0,0h0.1h0.1c0.1,0,0.1,0,0.2,0h0.1c0.1,0,0.2,0,0.3,0l0,0    c1.6-0.2,4.6-0.9,5.5-1.1c0.3-0.1,2.1-0.6,2.7-0.8c0.5-0.1,5.5-2.1,9.3-4l0,0l0,0c0.2-0.3,3.4-2.5,7.1-5.4l-0.1,0.1    c-0.2,0.3-0.5,0.6-0.7,0.9c-0.1,0.1-0.2,0.2-0.3,0.4c-0.2,0.2-0.4,0.4-0.6,0.6c-0.1,0.1-0.2,0.3-0.4,0.4c-0.2,0.2-0.4,0.4-0.6,0.6    c-0.1,0.1-0.2,0.2-0.3,0.3c-0.3,0.3-0.6,0.5-0.9,0.8c-0.1,0.1-0.2,0.1-0.2,0.2c-0.3,0.2-0.5,0.5-0.8,0.7c-0.1,0.1-0.2,0.2-0.4,0.3    c-0.2,0.2-0.4,0.3-0.6,0.5c-0.1,0.1-0.3,0.2-0.4,0.3c-0.2,0.2-0.5,0.3-0.7,0.5c-0.1,0.1-0.2,0.2-0.4,0.2c-0.3,0.2-0.7,0.5-1.1,0.7    c-3.7,1.6-7.5,2.9-11.5,3.9c-2.6,0.7-5.3,1.2-8,1.6c-0.9,0.1-1.9,0.3-2.8,0.4c-0.1,0-0.2,0-0.3,0c-0.9,0.1-1.8,0.2-2.7,0.3    c-0.2,0-0.3,0-0.5,0c-0.9,0.1-1.7,0.1-2.6,0.2c-0.2,0-0.4,0-0.5,0c-0.9,0-1.8,0-2.6,0.1c-0.3,0-0.6,0-0.9,0s-0.6,0-0.9,0    s-0.6,0-0.9,0s-0.6,0-0.9,0s-0.6,0-0.9,0s-0.7,0-1-0.1c-0.3,0-0.6,0-0.8-0.1c-0.3,0-0.7-0.1-1-0.1s-0.5,0-0.8-0.1    c-0.4,0-0.7-0.1-1.1-0.1c-0.3,0-0.5-0.1-0.8-0.1c-0.4,0-0.8-0.1-1.1-0.1c-0.2,0-0.5-0.1-0.7-0.1c-0.4-0.1-0.9-0.1-1.3-0.2    c-0.2,0-0.4-0.1-0.6-0.1c-0.6-0.1-1.2-0.2-1.8-0.3l3-14.5l0.7-3.2l2.8,0.9l3.7-0.6l0.3-1.3l0.8-0.1c-1.1-0.2-2.1-0.4-3.2-0.6    c-2.1-0.4-4.2-0.8-6.2-1.2l-0.5,2.2l-0.2,1.1l-1.2,5.9l-2.2,10.9c-0.6-0.1-1.2-0.3-1.8-0.4c-0.2,0-0.4-0.1-0.5-0.1    c-0.4-0.1-0.9-0.2-1.3-0.3c-0.2-0.1-0.4-0.1-0.6-0.2c-0.4-0.1-0.8-0.2-1.2-0.3c-0.2-0.1-0.4-0.1-0.6-0.2c-0.4-0.1-0.8-0.2-1.2-0.4    c-0.2-0.1-0.4-0.1-0.6-0.2c-0.4-0.1-0.8-0.3-1.2-0.4c-0.2-0.1-0.4-0.1-0.6-0.2c-0.4-0.1-0.8-0.3-1.2-0.5c-0.2-0.1-0.3-0.1-0.5-0.2    c-0.4-0.2-0.9-0.3-1.3-0.5c-0.1-0.1-0.3-0.1-0.4-0.2c-0.5-0.2-1-0.4-1.5-0.6c-0.1,0-0.2-0.1-0.3-0.1c-0.1,0-0.1-0.1-0.2-0.1    c-0.7-0.3-1.5-0.7-2.2-1c-0.1-0.1-0.3-0.1-0.4-0.2c-0.8-0.4-1.5-0.7-2.3-1.1c-0.1-0.1-0.3-0.1-0.4-0.2c-0.8-0.4-1.5-0.8-2.2-1.2    c-0.1-0.1-0.2-0.1-0.3-0.2c-0.8-0.4-1.5-0.9-2.3-1.4c-2.4-1.5-4.6-3-6.8-4.7c-3.2-2.5-6.2-5.2-9-8.1c-0.1-0.2-0.2-0.4-0.4-0.6    c-0.1-0.2-0.2-0.4-0.4-0.6c-0.1-0.1-0.1-0.2-0.2-0.3c-0.2-0.3-0.3-0.5-0.5-0.8s-0.4-0.6-0.5-1c-0.1-0.3-0.3-0.5-0.4-0.8    c-0.2-0.4-0.4-0.8-0.6-1.2c-0.1-0.2-0.2-0.4-0.3-0.6c-0.3-0.6-0.5-1.2-0.7-1.8c-0.1-0.3-0.2-0.5-0.3-0.8c-0.1-0.4-0.3-0.8-0.4-1.2    c-0.1-0.3-0.2-0.6-0.2-0.9c-0.1-0.4-0.2-0.8-0.3-1.2c0-0.2-0.1-0.4-0.1-0.6c-0.7-0.3-1.3-0.5-2-0.8c0,0.2,0.1,0.4,0.1,0.5    s0.1,0.3,0.1,0.4c0.1,0.5,0.2,0.9,0.3,1.4c0,0,0,0,0,0.1c0.1,0.5,0.2,0.9,0.4,1.4c0,0.1,0.1,0.3,0.1,0.4c0.1,0.3,0.2,0.7,0.3,1    c0,0.1,0.1,0.3,0.1,0.4c0.1,0.4,0.3,0.9,0.5,1.3c-0.5-0.6-0.9-1.2-1.4-1.8c-0.1-0.1-0.2-0.3-0.3-0.4c-0.4-0.6-0.8-1.1-1.2-1.7    c-0.1-0.1-0.1-0.1-0.2-0.2c-0.4-0.6-0.9-1.3-1.3-1.9c-0.1-0.1-0.2-0.3-0.3-0.5c-0.3-0.5-0.7-1-1-1.6c-0.1-0.2-0.2-0.3-0.3-0.5    c0-0.1-0.1-0.1-0.1-0.2c-1.5-0.7-2.9-1.3-4.4-2c9.1,17.1,24,31.1,42.6,38.6c0.4,0.2,0.9,0.4,1.3,0.5c0.2,0.1,0.4,0.1,0.5,0.2    c0.4,0.2,0.9,0.3,1.3,0.5c0.2,0.1,0.4,0.1,0.6,0.2c0.4,0.1,0.8,0.3,1.3,0.4c0.2,0.1,0.4,0.1,0.6,0.2c0.4,0.1,0.8,0.3,1.3,0.4    c0.2,0.1,0.4,0.1,0.6,0.2c0.4,0.1,0.9,0.3,1.3,0.4c0.2,0.1,0.4,0.1,0.7,0.2c0.4,0.1,0.8,0.2,1.3,0.3c0.3,0.1,0.5,0.1,0.8,0.2    c0.4,0.1,0.8,0.2,1.2,0.3c0.7,0.2,1.3,0.3,2,0.4c2.8,0.6,5.7,1,8.5,1.3c0.1,0,0.3,0,0.4,0c0.6,0.1,1.1,0.1,1.7,0.2    c0.4,0,0.8,0.1,1.3,0.1c0.3,0,0.6,0,0.8,0.1c0.6,0,1.2,0.1,1.9,0.1c0.1,0,0.2,0,0.2,0c0.7,0,1.4,0,2,0c0,0,0,0,0.1,0    c0.7,0,1.3,0,2,0c0.2,0,0.3,0,0.5,0c0.5,0,1,0,1.5-0.1c0.2,0,0.5,0,0.7,0c0.4,0,0.9,0,1.3-0.1c0.2,0,0.5,0,0.7-0.1    c0.4,0,0.8-0.1,1.2-0.1C130.9,167.3,131.2,167.3,131.5,167.3z" />
            <path class="st0"
                d="M40.5,66.7c-2.1,10-2.2,20-0.8,29.6c0.1,0.1,0.2,0.1,0.2,0.2c1,0.7,2,1.4,3.1,2.1c-0.1-0.6-0.2-1.3-0.3-1.9    c-0.6-3.9-1-7.8-1-11.8c0.1,0.5,0.3,1,0.4,1.6c0,0.1,0.1,0.3,0.1,0.4c0.1,0.4,0.2,0.8,0.4,1.2c0,0.1,0.1,0.3,0.1,0.4    c0.1,0.4,0.3,0.9,0.4,1.3c0,0.1,0.1,0.2,0.1,0.3c0.2,0.5,0.4,1.1,0.6,1.6v0.1c0.2,0.5,0.4,1,0.6,1.4c0.1,0.1,0.1,0.3,0.2,0.4    c0.2,0.4,0.3,0.8,0.5,1.2c0.1,0.1,0.1,0.3,0.2,0.4c0.2,0.5,0.4,0.9,0.7,1.4c0,0,0,0.1,0.1,0.1c0.3,0.5,0.5,1,0.8,1.5    c0.1,0.1,0.1,0.2,0.2,0.3c0.2,0.4,0.4,0.8,0.6,1.2c0.1,0.2,0.2,0.3,0.3,0.5c0.2,0.4,0.4,0.7,0.7,1.1c0.1,0.1,0.2,0.3,0.2,0.4    c0.1,0.2,0.3,0.5,0.4,0.7c1.2,0.7,2.5,1.4,3.8,2.1c0-0.1-0.1-0.1-0.1-0.2c-0.2-0.2-0.3-0.5-0.5-0.7c-0.3-0.4-0.6-0.8-0.8-1.2    c-0.2-0.2-0.3-0.5-0.5-0.7c-0.3-0.4-0.5-0.8-0.8-1.3c-0.1-0.2-0.3-0.5-0.4-0.7c-0.2-0.4-0.5-0.8-0.7-1.3c-0.1-0.2-0.3-0.5-0.4-0.7    c-0.2-0.4-0.5-0.9-0.7-1.3c-0.1-0.2-0.2-0.5-0.4-0.7c-0.2-0.4-0.4-0.9-0.6-1.3c-0.1-0.2-0.2-0.5-0.3-0.7c-0.2-0.4-0.4-0.9-0.6-1.3    c-0.1-0.2-0.2-0.5-0.3-0.7c-0.2-0.4-0.4-0.9-0.5-1.3c-0.1-0.3-0.2-0.5-0.3-0.8c-0.2-0.4-0.3-0.9-0.5-1.3c-0.1-0.3-0.2-0.5-0.3-0.8    c-0.1-0.4-0.3-0.9-0.4-1.3c-0.1-0.3-0.2-0.6-0.2-0.8c-0.1-0.4-0.2-0.8-0.3-1.3c-0.1-0.3-0.1-0.6-0.2-0.9c-0.1-0.4-0.2-0.8-0.3-1.2    c-0.1-0.3-0.1-0.6-0.2-0.9c-0.1-0.4-0.2-0.8-0.2-1.2c-0.1-0.4-0.1-0.7-0.2-1.1c0-0.3-0.1-0.7-0.1-1c-0.1-0.7-0.2-1.4-0.2-2.1    c0.1-0.8,0.2-1.7,0.3-2.6c0.2-1.9,0.5-3.8,0.9-5.7c0.4-2.1,1-4.1,1.5-6.1c0.5-1.7,1-3.3,1.6-4.9c0.6-1.3,1.1-2.5,1.8-3.7    c0.4-0.7,0.7-1.3,1.1-2c0.1-0.1,0.2-0.3,0.3-0.4c0.4-0.6,0.8-1.3,1.2-1.9l0,0c1.6-0.4,3.2-0.7,4.8-1c0,0,0,0,0-0.1    c0,0.3,0.1,0.6,0.1,0.9c0.9,8.6,5.9,17.4,14.6,25.5c-5.7,9.6-9.9,19.8-12.1,29.7c-0.1,0.6-0.3,1.2-0.4,1.8v0.1    c-0.1,0.5-0.2,1.1-0.3,1.6c0.5,0.3,1,0.5,1.5,0.8c0.1-0.4,0.1-0.8,0.2-1.1c0.1-0.4,0.1-0.9,0.2-1.3l0.1-0.5    c2.1-9.8,6.1-19.7,11.6-29.3l0.4-0.6c0.4,0.4,0.8,0.7,1.2,1c0.8,0.7,1.6,1.3,2.4,1.9c0.2,0.2,0.5,0.3,0.7,0.5    c0.6,0.5,1.2,0.9,1.8,1.4c0,0,0,0,0.1,0.1c0,0.1,0,0.1-0.1,0.2c-0.1,0.2-0.2,0.4-0.2,0.7c0,0.1-0.1,0.2-0.1,0.3    c-0.1,0.2-0.1,0.4-0.2,0.5c0,0.1-0.1,0.2-0.1,0.3c0,0.2-0.1,0.3-0.1,0.5c0,0.1,0,0.2-0.1,0.3c0,0.2,0,0.3-0.1,0.5    c0,0.1,0,0.2,0,0.3c0,0.2,0,0.3,0,0.5c0,0.1,0,0.2,0,0.3c0,0.1,0,0.3,0,0.4s0,0.2,0,0.3c0,0.2,0.1,0.3,0.1,0.4s0,0.1,0.1,0.2    c0.1,0.2,0.2,0.4,0.3,0.6c-1.9,3.2,4.8,12.9,3.3,16.3c2.1,3,3.1,6.2,5.3,7.9c-1.9-3.4-4.3-8.7-4-12.8c0.3,0.5,0.6,0.9,0.9,1.4    c0,0.1,0.1,0.1,0.1,0.2c0.3,0.4,0.5,0.9,0.8,1.3c0,0.1,0.1,0.2,0.1,0.2c0.2,0.4,0.5,0.9,0.7,1.3c0,0.1,0.1,0.2,0.1,0.2    c0.2,0.5,0.4,0.9,0.6,1.4c0,0.1,0.1,0.1,0.1,0.2c0.2,0.5,0.4,0.9,0.6,1.3v0.1c0.2,0.5,0.4,1,0.7,1.5c0.2,0.5,0.4,0.9,0.6,1.4    c0,0.1,0.1,0.2,0.1,0.3c0.2,0.4,0.4,0.9,0.6,1.3v0.1c1.1,2.3,2.3,4.5,3.8,6.5c0,0,0,0,0,0.1c0.2,0.3,0.4,0.5,0.6,0.8l0,0    c0.5,0.5,1,1.1,1.5,1.5l0,0c0.2,0.2,0.5,0.4,0.7,0.6c0.1,0.1,0.1,0.1,0.2,0.1c0.2,0.2,0.4,0.3,0.7,0.5c0.1,0.1,0.2,0.1,0.3,0.2    c0.2,0.2,0.4,0.3,0.7,0.5c0.1,0.1,0.2,0.1,0.3,0.2c0.2,0.2,0.5,0.3,0.7,0.4c0.1,0.1,0.2,0.1,0.3,0.2c0.3,0.2,0.7,0.4,1.1,0.6    c0.3,0.1,0.5,0.2,0.8,0.4c0.2,0.1,0.4,0.2,0.6,0.2c0.1,0,0.1,0.1,0.2,0.1c0.2,0.1,0.4,0.2,0.7,0.2c0.1,0,0.1,0,0.2,0.1    c0.2,0.1,0.3,0.1,0.5,0.2c5,1.2,10,2.4,15.1,3.3c0.2,0,0.5,0.1,0.7,0.1c-0.4-1.1-0.5-2.3-1.6-2.9l1.7-8.2c0.7-0.2,1.5-0.2,2.3-0.2    l0,0c0.8,0,1.6,0.1,2.3,0.2c1.7,0.4,3.1,1.2,3.5,2.4c1.6-0.2,3.1-0.4,4.5-1c-1.6-0.5-3.7-1.4-5.9-2c-2-0.5-4-0.8-5.9-0.2l0,0    c-0.3,0.1-0.5,0.2-0.7,0.3l0.1-0.5l0,0v-0.2l1-5l0,0c0.1,0.1,0.1,0.2,0.2,0.2c0.1,0.2,0.3,0.4,0.4,0.6c0.1,0.1,0.2,0.3,0.3,0.4    c0.2,0.3,0.4,0.7,0.7,1.1c0.1-0.2,0.2-0.4,0.2-0.5s0-0.1,0-0.2s0.1-0.3,0.1-0.4s0-0.1,0-0.2c0-0.2,0-0.3,0.1-0.5c0,0,0,0,0-0.1    c0-0.2,0-0.4,0-0.6v-0.1c0-0.2,0-0.3,0-0.5v-0.1c-0.1-1.1-0.5-2.2-0.7-3.3v-0.1c0-0.1,0-0.2-0.1-0.4c0-0.1,0-0.1,0-0.2    s0-0.2,0-0.3c0,0,0,0,0-0.1l0,0l0.6-2.8l0.1-0.5l0.1-0.4l0,0c0.1-0.1,0.2-0.2,0.2-0.3c0,0,0,0,0.1-0.1s0.2-0.2,0.3-0.3    c0,0,0,0,0.1-0.1s0.2-0.1,0.3-0.2c0,0,0,0,0.1,0c0.1-0.1,0.2-0.1,0.4-0.2h0.1c0.1-0.1,0.2-0.1,0.3-0.2c0,0,0,0,0.1,0    c0.1-0.1,0.2-0.1,0.4-0.2c0,0,0.1,0,0.1-0.1c0.1,0,0.2-0.1,0.2-0.1c0.2-0.1,0.3-0.1,0.5-0.2l0,0c0.1,0,0.2,0,0.3,0.1    c0.4,0.1,0.8,0.1,1.2,0.2c0.6,0.1,1.3,0.2,1.9,0.3c0.4,0.1,0.8,0.1,1.2,0.2c0.6,0.1,1.3,0.2,1.9,0.3c0.4,0,0.7,0.1,1.1,0.1    c0.9,0.1,1.7,0.2,2.6,0.3c0.2,0,0.3,0,0.5,0c1,0.1,2,0.2,3,0.2c0.3,0,0.6,0,0.9,0c0.7,0,1.5,0.1,2.2,0.1c0.3,0,0.7,0,1,0    c0.7,0,1.4,0,2.1,0c0.3,0,0.6,0,1,0c0.9,0,1.7,0,2.6,0c0.1,0,0.3,0,0.4,0c1,0,2-0.1,2.9-0.1c0.3,0,0.5,0,0.8,0    c0.7,0,1.4-0.1,2.1-0.1c0.3,0,0.7-0.1,1-0.1c0.6-0.1,1.3-0.1,1.9-0.2c0.3,0,0.7-0.1,1-0.1c0.9-0.1,1.7-0.2,2.5-0.3    c0.3-0.1,0.7-0.1,1-0.2c0.6-0.1,1.2-0.2,1.8-0.3c0.4-0.1,0.9-0.2,1.3-0.2c0.3-0.1,0.6-0.1,0.8-0.2c0.3-0.1,0.5-0.1,0.8-0.2    s0.6-0.1,0.9-0.2c0.8-0.2,1.5-0.4,2.3-0.5c0.3-0.1,0.6-0.1,0.9-0.2c0.8-0.2,1.6-0.4,2.4-0.7c0.5-0.1,1-0.3,1.5-0.5l0.1,0.8    c0.1,0.7,0.2,1.4,0.2,2c0,0.1,0,0.2,0,0.3c0.1,0.6,0.1,1.1,0.2,1.7c0,0.1,0,0.3,0,0.4c0,0.5,0.1,1,0.1,1.6c0,0.2,0,0.4,0,0.6    c0,0.5,0.1,1,0.1,1.4c0,0.2,0,0.4,0,0.6c0,0.4,0,0.9,0.1,1.3c0,0.2,0,0.5,0,0.7c0,0.4,0,0.8,0,1.3c0,0.3,0,0.5,0,0.8    c0,0.4,0,0.8,0,1.2c0,0.3,0,0.6,0,0.8c0,0.4,0,0.7,0,1.1c0,0.3,0,0.6,0,0.9s0,0.7,0,1s0,0.6,0,0.9s0,0.7-0.1,1c0,0.3,0,0.6-0.1,1    c0,0.3,0,0.6-0.1,0.9c0,0.3-0.1,0.7-0.1,1s-0.1,0.6-0.1,0.9s-0.1,0.7-0.1,1s-0.1,0.6-0.1,0.9s-0.1,0.7-0.1,1s-0.1,0.6-0.1,0.9    s-0.1,0.7-0.2,1c0,0.3-0.1,0.6-0.1,0.9c-0.1,0.3-0.1,0.6-0.2,1c0,0.2-0.1,0.3-0.1,0.5l0,0c-0.3,0.2-0.6,0.5-0.8,0.7    c-0.1,0-0.3,0-0.5,0c-0.1,0-0.1,0-0.2,0s-0.3,0-0.4,0h-0.1c-0.1,0-0.3,0-0.4,0c0,0,0,0-0.1,0s-0.2,0-0.3,0s-0.1,0-0.2,0    s-0.2,0-0.3,0s-0.2,0-0.3,0s-0.1,0-0.2,0c-0.2,0-0.3,0-0.5,0c-0.1,0-0.2,0-0.4,0h-0.1c-0.4,0-0.6,0.1-0.7,0.1l0,0    c-0.8,0.7-1.5,1.2-2.1,1.6c5.7-0.3,11.2-0.8,16.3-1.7c0.1-0.2,0.1-0.4,0.1-0.5c0,0,0,0,0-0.1c0.1-0.2,0.1-0.5,0.2-0.7    c0,0,0,0,0-0.1c0-0.2,0.1-0.4,0.1-0.6v-0.1c0-0.2,0-0.4,0.1-0.6l0,0c0-0.2,0-0.4,0-0.6v-0.1c0-0.1,0-0.3,0-0.4v-0.1    c0-0.2-0.1-0.3-0.1-0.5c-0.6,0.2-1.2,0.4-1.8,0.6c-0.2,0.1-0.5,0.2-0.7,0.2c-0.1,0-0.1,0-0.2,0.1c-0.2,0.1-0.4,0.1-0.6,0.2    c-0.1,0-0.2,0.1-0.2,0.1c-0.5,0.2-1.1,0.4-1.6,0.6c-0.1,0-0.1,0-0.2,0.1c-0.2,0.1-0.5,0.2-0.7,0.3h-0.1c-0.3,0.1-0.5,0.3-0.8,0.4    l0,0l0,0l0,0c0-0.1,0-0.1,0-0.2c0.1-0.4,0.1-0.7,0.2-1.1c0-0.3,0.1-0.5,0.1-0.8c0.1-0.4,0.1-0.7,0.1-1.1c0-0.3,0.1-0.5,0.1-0.8    c0-0.4,0.1-0.7,0.1-1.1c0-0.3,0.1-0.6,0.1-0.8c0-0.3,0.1-0.7,0.1-1s0.1-0.6,0.1-0.9s0.1-0.7,0.1-1s0-0.6,0.1-0.9    c0-0.3,0-0.7,0.1-1c0-0.3,0-0.6,0-0.9s0-0.7,0-1s0-0.6,0-1c0-0.3,0-0.7,0-1s0-0.7,0-1s0-0.7,0-1s0-0.7,0-1s0-0.7,0-1s0-0.7,0-1    s0-0.6,0-1s0-0.7-0.1-1.1c0-0.3,0-0.6,0-0.9c0-0.4,0-0.7-0.1-1.1c0-0.3,0-0.6-0.1-0.9c0-0.4-0.1-0.8-0.1-1.2c0-0.3,0-0.6-0.1-0.9    c0-0.4-0.1-0.9-0.1-1.3c0-0.2,0-0.5-0.1-0.7c-0.1-0.7-0.2-1.4-0.2-2c0.8-0.3,1.5-0.6,2.3-0.9c0.2-0.1,0.5-0.2,0.7-0.3    c0.5-0.2,1-0.4,1.5-0.6c0.3-0.1,0.5-0.2,0.7-0.3c0.5-0.2,1-0.4,1.4-0.7c0.2-0.1,0.5-0.2,0.7-0.3c0.5-0.3,1-0.5,1.5-0.8    c0.2-0.1,0.3-0.2,0.5-0.3c0.7-0.4,1.3-0.7,1.9-1.1l0,0c0.6-0.4,1.2-0.8,1.8-1.2c0.2-0.1,0.3-0.2,0.5-0.3c0.4-0.3,0.8-0.6,1.2-0.9    c0.2-0.1,0.3-0.3,0.5-0.4c0.4-0.3,0.8-0.6,1.1-0.9c0.1-0.1,0.2-0.2,0.3-0.3l0,0l0,0l0.1,0.1c0.1,0.1,0.2,0.2,0.3,0.4    c0.1,0.1,0.1,0.1,0.2,0.2s0.2,0.3,0.4,0.4l0.1,0.1c0.1,0.1,0.2,0.2,0.4,0.4l0.1,0.1c0.1,0.1,0.3,0.2,0.4,0.4c0,0,0,0,0.1,0.1    s0.3,0.2,0.4,0.3c0,0,0.1,0,0.1,0.1c0.1,0.1,0.3,0.2,0.4,0.2h0.1c0.1,0.1,0.3,0.1,0.4,0.1h0.1c0.1,0,0.3,0,0.4,0l0,0    c0.1,0,0.1,0,0.2,0h0.1c0.1,0,0.2,0,0.3-0.1c0.2-0.1,0.4-0.1,0.6-0.2c0.1,0,0.1,0,0.2-0.1s0.2-0.1,0.4-0.2c0.1,0,0.1-0.1,0.2-0.1    c0.1-0.1,0.2-0.1,0.3-0.2c0.1,0,0.1-0.1,0.2-0.1c0.1-0.1,0.2-0.1,0.3-0.2c0.1,0,0.1-0.1,0.2-0.1c0.1-0.1,0.2-0.2,0.3-0.2l0.1-0.1    c0.1-0.1,0.2-0.2,0.2-0.3l0.1-0.1c0.1-0.1,0.2-0.3,0.3-0.4l0,0c0.1-0.2,0.2-0.3,0.3-0.5l0.1-0.1c0.1-0.1,0.1-0.2,0.2-0.4    c0-0.1,0.1-0.1,0.1-0.2c0.1-0.1,0.1-0.2,0.2-0.3c0-0.1,0.1-0.1,0.1-0.2s0.1-0.2,0.1-0.4c0-0.1,0-0.1,0.1-0.2    c0-0.1,0.1-0.3,0.1-0.4s0-0.1,0.1-0.2c0-0.1,0.1-0.3,0.1-0.4s0-0.1,0-0.2c0.1-0.4,0.2-0.8,0.3-1.3v-0.1c0-0.2,0.1-0.4,0.1-0.5l0,0    l0.1,0.5l1.2,1.7l-0.1-3.4c0.2,0.2,0.5,0.4,0.7,0.5l0,0v0.1c0.1,0.5,0.1,1,0.2,1.5c0,0.2,0,0.4,0.1,0.6c0,0.4,0.1,0.8,0.1,1.2    c0,0.2,0,0.4,0.1,0.6c0,0.6,0.1,1.1,0.1,1.7c0,0.4,0,0.8,0,1.1c-0.1,2.4-0.3,4.9-0.7,7.4c-0.3,1.9-0.5,3.8-0.9,5.7    c-0.4,2.1-1,4.1-1.5,6.1c-0.3,0.9-0.6,1.8-0.9,2.7c-0.3,0.6-0.6,1.1-1,1.7c-0.1,0.2-0.2,0.3-0.3,0.5c-0.2,0.4-0.5,0.8-0.7,1.2    c-0.1,0.2-0.2,0.4-0.4,0.5c-0.3,0.4-0.5,0.8-0.8,1.2c-0.1,0.1-0.2,0.3-0.3,0.4c-0.4,0.5-0.8,1-1.2,1.6c-0.1,0.1-0.2,0.2-0.2,0.3    c-0.3,0.4-0.7,0.8-1,1.2c-0.1,0.2-0.3,0.4-0.4,0.5c-0.3,0.3-0.6,0.7-0.9,1c-0.2,0.2-0.3,0.4-0.5,0.5c-0.3,0.4-0.7,0.7-1,1    c-0.1,0.1-0.3,0.3-0.4,0.4c-0.5,0.5-0.9,0.9-1.4,1.4c-0.2,0.2-0.4,0.3-0.5,0.5c-0.3,0.3-0.6,0.6-0.9,0.9c-0.2,0.2-0.4,0.4-0.7,0.6    s-0.6,0.5-0.9,0.7c-0.2,0.2-0.5,0.4-0.7,0.6c-0.3,0.3-0.6,0.5-0.9,0.7c-0.4,0.3-0.8,0.6-1.3,1c-0.2,0.1-0.4,0.3-0.5,0.4    c1.5-0.3,3-0.6,4.4-0.9c0.3-0.3,0.6-0.5,1-0.8c0.1-0.1,0.3-0.2,0.4-0.4c0.4-0.3,0.7-0.6,1-0.9c0.2-0.1,0.3-0.3,0.5-0.4    c0.3-0.3,0.6-0.6,0.9-0.9c0.2-0.2,0.3-0.3,0.5-0.5c0.3-0.3,0.6-0.6,0.9-0.9c0.2-0.2,0.3-0.3,0.5-0.5c0.3-0.3,0.5-0.6,0.8-0.9    c0.2-0.2,0.3-0.3,0.5-0.5c0.3-0.3,0.5-0.6,0.8-1c0.1-0.2,0.3-0.3,0.4-0.5c0.4-0.5,0.8-1,1.2-1.4c-1.3,2.8-2.7,5.5-4.2,8.1    l-0.1,0.1c1-0.3,2.1-0.6,3-0.9c0.3-0.1,0.6-0.2,1-0.3c4-7.2,7-15.2,8.8-23.7c1-5,1.6-10,1.7-14.9c0-2.7-0.1-5.3-0.3-7.9    c-0.4-3-0.8-6.4-1.3-9.8c-0.1-0.7-0.2-1.4-0.3-2.2c-0.2-1.1-0.5-2.2-0.8-3.2c-7.8-30-32-54.5-64.4-61.2    c-34.4-7.1-68.3,8-86.7,35.5c-3,5-5.8,10.1-7.9,14.8C43.1,56.4,41.5,61.4,40.5,66.7z M196.1,49.8l0.9,2l2.4,7.2l1.9,7.3    c-0.4-1-0.9-2-1.3-3.1c-1-2.1-2.1-4.2-3.3-6.3c0-2.3-0.3-4.6-0.7-6.9C196,49.9,196.1,49.9,196.1,49.8z M82.1,70.4    c0,0.1,0,0.1,0,0.2c0,0.2,0,0.5,0,0.7c0,0.1,0,0.1,0,0.2c0,0.2,0,0.4,0,0.5v0.1c0,0.2-0.1,0.4-0.1,0.6v0.1c0,0.2-0.1,0.4-0.1,0.5    c0-0.1-0.2-0.7-1-1.8c-0.1,1.1-0.3,2.5-0.3,3.4c-0.1,0.1-0.3,0.3-0.4,0.4l-0.1,0.1c-0.1,0.2-0.3,0.3-0.4,0.5c0,0,0,0,0,0.1    c-0.1,0.2-0.2,0.3-0.4,0.5l-0.1,0.1c-0.1,0.2-0.2,0.4-0.4,0.6l-0.1,0.1c-0.1,0.2-0.2,0.3-0.3,0.5l-0.1,0.1l0,0l0,0l0,0    c-0.1-0.1-0.3-0.2-0.4-0.3c-0.2-0.2-0.5-0.4-0.7-0.5c-0.7-0.5-1.3-1-1.9-1.5c-0.2-0.1-0.3-0.3-0.5-0.4c-0.7-0.6-1.4-1.1-2-1.7    l-0.4-0.3V73c0.3-0.5,0.6-1,0.9-1.4l0,0l0,0c0,0,0,0,0-0.1c0.6-0.9,1.1-1.8,1.7-2.7c0.1-0.1,0.2-0.2,0.2-0.4    c1.2-1.8,2.4-3.5,3.7-5.3c0.1-0.2,0.3-0.3,0.4-0.5c0.6-0.8,1.2-1.7,1.9-2.5l0.1-0.1l0,0c0.2,1,0.4,2.4,0.6,3.9V64    c0,0.3,0.1,0.6,0.1,0.8c0,0,0,0,0,0.1c0,0.3,0.1,0.5,0.1,0.8c0,0.1,0,0.1,0,0.2c0,0.3,0,0.5,0.1,0.8c0,0.1,0,0.1,0,0.2    c0,0.2,0,0.4,0,0.6c0,0.1,0,0.1,0,0.2c0,0.3,0,0.5,0,0.7c0,0.1,0,0.2,0,0.3c0,0.2,0,0.5,0,0.7c0,0.1,0,0.1,0,0.2    C82.1,70,82.1,70.2,82.1,70.4z M83.7,37.9c-0.6-1.4,0.1-0.5-1-2c-0.1,1.4-0.5,1.9-0.4,3.3c-4-1.2-5,0.8-6.1,2.8    c-1,1.8-2.5,7.3-6.2,6.6c3.1,3,5.3-1.4,8.6-1.7c-1.1,0.2-0.1,1.7-1,2.1c0.6,0,2.5,0,3,0c0.1,0.4,0.3,0.9,0.4,1.3    c0.1,0.2,0.1,0.3,0.2,0.5l0,0c0,0.1,0.1,0.2,0.1,0.3s0,0.2,0.1,0.2c0,0.1,0.1,0.2,0.1,0.3s0.1,0.2,0.1,0.3s0,0.1,0.1,0.2    c0,0.2,0.1,0.3,0.1,0.5c0,0.1,0,0.1,0,0.2s0,0.2,0.1,0.3c0,0.1,0,0.1,0,0.2s0,0.2,0,0.3s0,0.1,0,0.2s0,0.2,0,0.3s0,0.1,0,0.2    c0,0.2,0,0.3,0,0.5c0,0.1,0,0.1,0,0.2s0,0.2,0,0.3s0,0.2,0,0.2c0,0.1,0,0.2,0,0.3s0,0.2,0,0.2c0,0.1-0.1,0.2-0.1,0.4    c0,0.1,0,0.1-0.1,0.2c0,0.2-0.1,0.4-0.2,0.5c0,0.1-0.1,0.2-0.1,0.2c0,0.1-0.1,0.2-0.1,0.3l0,0l0,0c-2.3,2.9-4.4,5.8-6.5,8.8    c-0.8,1.2-1.6,2.5-2.4,3.7c0,0,0,0.1-0.1,0.1c-0.1,0.1-0.2,0.3-0.2,0.4c-0.3,0.5-0.6,1-0.9,1.5l-0.5-0.5c-2-2-3.8-3.9-5.4-6    c0,0,0-0.1-0.1-0.1c-0.3-0.4-0.6-0.8-0.9-1.2c-0.1-0.1-0.2-0.2-0.3-0.3c-0.3-0.4-0.5-0.7-0.7-1.1c-0.1-0.2-0.2-0.3-0.3-0.5    c-0.2-0.3-0.4-0.6-0.6-0.9c-0.1-0.2-0.3-0.4-0.4-0.6c-0.2-0.3-0.3-0.6-0.5-0.8c-0.1-0.2-0.3-0.5-0.4-0.7c-0.1-0.3-0.3-0.5-0.4-0.8    c-0.1-0.3-0.3-0.5-0.4-0.8c-0.1-0.2-0.2-0.5-0.3-0.7c-0.1-0.3-0.3-0.6-0.4-0.9c-0.1-0.2-0.2-0.4-0.2-0.6c-0.1-0.3-0.2-0.6-0.4-0.9    c-0.1-0.2-0.1-0.4-0.2-0.6c-0.1-0.3-0.2-0.7-0.3-1c-0.1-0.2-0.1-0.4-0.2-0.6c-0.1-0.3-0.2-0.7-0.3-1c0-0.2-0.1-0.4-0.1-0.6    c-0.1-0.3-0.2-0.7-0.2-1c0-0.2-0.1-0.4-0.1-0.5c-0.1-0.3-0.1-0.7-0.2-1c0-0.2,0-0.4-0.1-0.5c0-0.3-0.1-0.7-0.1-1c0,0,0,0,0-0.1    c0-0.7,0-1.4,0-2c0-0.4,0-0.8,0.1-1.2c0,0,0,0,0-0.1l0,0c0.1-1.1,0.2-2.1,0.4-3.1c0.1-0.4,0.2-0.8,0.3-1.2    c2.9-2.9,6.1-5.6,9.6-8.1c2.3-1.6,4.7-3.1,7.2-4.5c0.8-0.4,1.6-0.8,2.4-1.2c0.6-0.3,1.2-0.6,1.9-0.9c-0.2,0.6-0.4,1.1-1.1,2.1    c0.6,1.3,0.8,2,1.2,3.4c0.9-0.4,2.2-1,3-1.6c0.6,0.9-0.2,1.2,1.3,0.9c0,0.1,0,0.1,0.1,0.2c-0.9,1-1.5,1.9-2.5,3.2    c1.1,0.1,2.2-0.3,3.1-1.1c0.4,1,0.8,2,1.3,3c0.1,0.3,0.3,0.5,0.4,0.8C85.3,35.7,84.5,36.5,83.7,37.9z M91.5,46    c-0.3,0.1-0.5,0.1-0.8,0.1c-0.4-1.3-0.7-3.5-1.2-5.6c1.1,1.3,2.3,2.6,3.6,3.8C92.6,44.9,92.1,45.5,91.5,46z M97.6,51.9    c0.1-2.3-1.1-3.5-1.6-5.1c2.4,1.9,5.1,3.7,7.9,5.3c-1.1,0.6-2.2,0.8-3.2,1.2C99.7,52.9,98.8,52,97.6,51.9z M115.4,113.6    L115.4,113.6l-1.9,9c-0.7,0-1.5,0.1-2.4,0.2c4-7.3,1.7-6-1.9-4.7c-2.6,0.9-5.9,1.9-7.9-0.5c-0.4-0.4-0.7-0.8-1-1.2l0,0l-0.1-0.1    c-0.1-0.1-0.1-0.2-0.2-0.3c-0.1-0.1-0.2-0.3-0.3-0.4c-0.1-0.1-0.1-0.2-0.2-0.3c-0.1-0.1-0.2-0.3-0.2-0.4s-0.1-0.2-0.1-0.2    c-0.1-0.2-0.2-0.4-0.3-0.6c0-0.1,0-0.1-0.1-0.1c-0.1-0.2-0.1-0.3-0.2-0.5c0-0.1,0-0.2-0.1-0.2c0-0.1-0.1-0.2-0.1-0.3    c0-0.1,0-0.2-0.1-0.2c0-0.1,0-0.2-0.1-0.3c0-0.1,0-0.2,0-0.2c0-0.1,0-0.2,0-0.3c0-0.1,0-0.2,0-0.2c0-0.1,0-0.2,0-0.3    c0-0.1,0-0.2,0-0.2c0-0.1,0-0.3,0.1-0.4c0-0.1,0-0.1,0.1-0.2c0-0.1,0-0.2,0.1-0.2c0-0.1,0.1-0.1,0.1-0.2s0.1-0.1,0.1-0.2    s0.1-0.1,0.1-0.2s0.1-0.1,0.1-0.2s0.1-0.1,0.1-0.2s0.1-0.1,0.1-0.2s0.1-0.1,0.1-0.2c0.1-0.1,0.2-0.2,0.3-0.3    c0.1,0,0.1-0.1,0.2-0.1c0.1-0.1,0.1-0.1,0.2-0.2c0.1,0,0.1-0.1,0.2-0.1c0.1-0.1,0.1-0.1,0.2-0.2c0.1,0,0.1-0.1,0.2-0.1    c0.1-0.1,0.2-0.1,0.2-0.1c0.1,0,0.1-0.1,0.2-0.1c0.1-0.1,0.2-0.1,0.3-0.1c0.1,0,0.1-0.1,0.2-0.1c0.1-0.1,0.3-0.1,0.4-0.2h0.1    c0.2-0.1,0.3-0.1,0.5-0.2c0.1,0,0.1,0,0.2-0.1c0.1,0,0.3-0.1,0.4-0.1s0.1,0,0.2-0.1c0.1,0,0.3-0.1,0.4-0.1s0.1,0,0.2,0    c0.2,0,0.3-0.1,0.5-0.1h0.1c0.4-0.1,0.9-0.1,1.3-0.1l0,0c0.2,0,0.4,0,0.7,0h0.1c0.2,0,0.3,0,0.5,0c0.3,0,0.7,0,1,0    c0.1,0,0.2,0,0.3,0c0.4,0,0.7,0.1,1.1,0.1c0-0.1,0-0.2,0-0.3l0,0c0-0.1,0-0.2,0-0.3l0,0c0-0.1,0-0.1-0.1-0.2l0,0    c0-0.1,0-0.1-0.1-0.2l0,0c0-0.1,0-0.1-0.1-0.2l0,0c-0.2-0.3-0.3-0.6-0.4-0.7v-0.1c0.4-0.1,0.7-0.2,1-0.2c0.1,0,0.2,0,0.3-0.1    c0.2,0,0.5-0.1,0.7-0.1c0.1,0,0.2,0,0.3,0c0.3,0,0.5,0,0.8,0h0.1c0.3,0,0.6,0,0.8,0c0.1,0,0.1,0,0.2,0c0.2,0,0.4,0.1,0.5,0.1    s0.2,0.1,0.3,0.1c0.1,0,0.3,0.1,0.4,0.1s0.2,0.1,0.3,0.1c0.1,0,0.2,0.1,0.4,0.2c0.1,0.1,0.2,0.1,0.3,0.2c0.1,0.1,0.2,0.1,0.3,0.2    c0.1,0.1,0.2,0.1,0.3,0.2c0.1,0.1,0.2,0.1,0.3,0.2c0.1,0.1,0.2,0.2,0.3,0.2c0.1,0.1,0.2,0.2,0.3,0.3c0.1,0.1,0.2,0.2,0.3,0.2l0,0    L115.4,113.6z M120.3,59.1L120.3,59.1c-0.2,0-0.5,0-0.7,0.1c-0.5,0.2-1,0.5-1.5,1.2c-0.1,0.1-0.1,2-0.1,4.4c0,1.1,0,2.2,0.1,3.4    c0.1,3.3,0.2,6.5,0.2,7.2c-0.5-1-1-1.9-1.5-2.6c-0.2-0.2-0.3-0.5-0.5-0.7c0,0,0-0.1-0.1-0.1c-2-2.5-4.3-3.5-8.2-4.7    c-0.2-0.3-0.3-0.5-0.5-0.8l0,0c0,0,0,0,0-0.1s-0.1-0.1-0.1-0.2s-0.1-0.1-0.1-0.2s-0.1-0.1-0.1-0.2s-0.1-0.2-0.1-0.2    c0-0.1,0-0.1-0.1-0.2c0-0.1-0.1-0.2-0.1-0.4c0-0.1,0-0.1,0-0.2s0-0.1,0-0.2s0-0.1,0-0.2s0-0.1,0-0.2s0-0.1,0-0.2s0-0.2,0-0.2v-0.1    c0-0.1,0-0.2,0.1-0.3v-0.1c0-0.1,0-0.1,0.1-0.2c0-0.1,0-0.1,0-0.2s0-0.1,0.1-0.2c0,0,0-0.1,0.1-0.1c0-0.1,0.1-0.2,0.1-0.2v-0.1    c0.1-0.1,0.1-0.2,0.2-0.3c0,0,0-0.1,0.1-0.1c0-0.1,0.1-0.1,0.1-0.2c0,0,0-0.1,0.1-0.1c0,0,0-0.1,0.1-0.1l0,0c1.1-1.8,3-3.4,4-5.2    c0.3,0.1,0.6,0.3,0.9,0.4c-0.3,0.6-0.5,1.2-0.7,1.7c0,2,2.8,0,4.3-0.4l0,0c0.9,0.3,1.9,0.6,2.8,0.9c0,0,0,0,0.1,0s0.2,0.1,0.3,0.1    C119.9,59.1,120.1,59.1,120.3,59.1C120.4,59.1,120.3,59.1,120.3,59.1z M107.9,52.3v-0.2l0,0V52.3z M121,48.2    C121,48.2,120.9,48.2,121,48.2c-0.2-0.1-0.3-0.2-0.5-0.2c0,0,0,0-0.1,0c-1.6-0.7-3.3-1.1-5-0.9c0.1,0,2.3-3,1.4-3.1    c-0.9,1.3-2.6,2-2.6,1.2c-0.8,0-1.6,0-2.4,0l0,0c-0.7-0.2-1.3-0.3-1.7-0.3c-0.3-0.2-0.6-0.3-1-0.4c-1.2,0.3-1.9,0.6-2.2,0.9    l-0.6-0.8c-2.6-0.4-3.5-0.4-6.3,0.7c0.1,1,0.3,1.6,1.6,2.4c-0.6,0.3-1.3-0.1-1.8-0.3c0.1,0.3,0.2,0.6,0.3,0.8    c-1.7-1.2-3.3-2.4-4.8-3.7c3.6-3.5,7.5-6.8,11.4-9.8c0.7-0.5,1.3-1,2-1.5c3.3-2.4,6.6-4.6,10-6.6c1.7,1.2,3.6,2.2,5.6,3.1    c-0.3,0.1-0.7,0.2-1.1,0.5c-4.5,2-4.7,5.8-5.6,9.2c0.3,0.5,1.2,0.1,1.6,0.7c0,0,2.5,2.7,4.2,3c-0.2,0,0.6,0.4,1.6,0.9l0,0    c0.4,0.2,0.9,0.5,1.4,0.7c1.4,0.7,2.8,1.4,2.9,1.4c0,0.1,0,0.1,0,0.2l-0.7,3.2l-0.5,2.5l-1.2,5.6l0,0c-0.1-0.1-0.1-0.2-0.2-0.3    s-0.2-0.2-0.2-0.3c-2.6-1-4.5-1.3-3-4c0.1,0,0.2,0,0.3,0.1l0,0c0.1,0,0.2,0.1,0.3,0.1c0,0,0,0,0.1,0c0.1,0.1,0.2,0.1,0.3,0.2    c0,0,0,0,0.1,0c0.1,0.1,0.2,0.1,0.3,0.2c0.1,0.1,0.1,0.1,0.2,0.2c0,0,0.1,0,0.1,0.1c0.1,0.1,0.1,0.1,0.2,0.2c0,0,0,0,0.1,0    s0.1,0.1,0.2,0.1l0,0c0.1,0,0.1,0,0.2,0s0.1,0,0.2-0.1s0.1-0.2,0.1-0.3v-0.1c0-0.1,0-0.1,0.1-0.2v-0.1c0-0.1,0-0.2,0-0.3l0,0    c0-0.1,0-0.2-0.1-0.3v-0.1c0-0.1-0.1-0.2-0.1-0.3v-0.1c-0.1-0.1-0.1-0.2-0.2-0.4c0,0,0,0,0-0.1c-0.1-0.1-0.1-0.2-0.2-0.3    c0,0,0-0.1-0.1-0.1c-0.1-0.1-0.2-0.2-0.2-0.3c0,0,0,0-0.1-0.1s-0.2-0.3-0.4-0.4l0,0c-0.1-0.1-0.2-0.3-0.4-0.4c0,0,0,0-0.1-0.1    s-0.3-0.3-0.4-0.4l0,0c-0.3-0.3-0.7-0.5-1-0.8l0,0C122.2,48.9,121.6,48.6,121,48.2z M134.9,18.9l-2.5,12.4    c-4.6-1.1-9.1-2.9-12.7-5.4C124.7,23.1,129.8,20.7,134.9,18.9z M133.1,16.2h0.1c0,0,0,0,0.1,0.1C133.2,16.2,133.2,16.2,133.1,16.2    z M140.5,55.4c-0.3-1.2-0.6-2.3-0.8-3.3c-0.3-1.7-0.5-3.1-0.7-4.6c0-0.1,0-0.3,0-0.4l0,0c0-0.3-0.1-0.6-0.1-0.9    c-0.4-3.4,1.1-6.1,0.2-6.5c0-1.2-3.6-1-4.8-1c0.4-0.1,0.7-0.3,1.1-0.4c-0.6-0.6-1.1-1.2-1.7-1.7l0.7-3.6c2.8,0.5,5.7,0.7,8.4,0.7    c0.1,0,0.2,0,0.4,0c0.3,0,0.6,0,0.9,0s0.6,0,0.9-0.1c0.3,0,0.5,0,0.8-0.1c0.3,0,0.7-0.1,1-0.1c0.2,0,0.4,0,0.7-0.1    c0.5-0.1,1.1-0.2,1.6-0.3c2.3,3.1,4.5,6.5,6.6,9.9c0.4,0.7,0.8,1.4,1.2,2.1c0.5,1,1.1,2,1.6,2.9c0.1,0.2,0.3,0.5,0.4,0.7    c0.5,1,1,1.9,1.5,2.9c0.1,0.2,0.2,0.4,0.3,0.6c0.3,0.5,0.5,1,0.7,1.6c0.1,0.3,0.3,0.6,0.4,0.9s0.3,0.6,0.4,1    c0.5,1,0.9,2.1,1.4,3.1c-0.3,0.1-0.7,0.2-1,0.3c-0.1,0-0.3,0.1-0.4,0.1c-0.4,0.1-0.8,0.2-1.2,0.3c-0.3,0.1-0.5,0.1-0.8,0.2    c-0.4,0.1-0.9,0.2-1.3,0.3c-0.3,0.1-0.5,0.1-0.8,0.2c-0.4,0.1-0.9,0.2-1.3,0.3c-0.3,0-0.5,0.1-0.8,0.1c-0.5,0.1-0.9,0.1-1.4,0.2    c-0.3,0-0.5,0.1-0.8,0.1c-0.5,0.1-1,0.1-1.4,0.2c-0.3,0-0.5,0.1-0.8,0.1c-0.5,0-1,0.1-1.5,0.1c-0.2,0-0.5,0-0.7,0.1    c-0.6,0-1.1,0.1-1.7,0.1c-0.2,0-0.4,0-0.6,0c-0.8,0-1.6,0-2.4,0c-0.7,0-1.3,0-2,0c-0.2,0-0.5,0-0.7,0c-0.5,0-0.9,0-1.4-0.1    c-0.3,0-0.6,0-0.8-0.1c-0.4,0-0.9-0.1-1.3-0.1c-0.3,0-0.6,0-0.9-0.1c-0.4,0-0.8-0.1-1.3-0.1c-0.3,0-0.6-0.1-0.9-0.1    c-0.4-0.1-0.9-0.1-1.3-0.2c-0.3,0-0.6-0.1-0.8-0.1c-0.5-0.1-0.9-0.1-1.4-0.2c-0.2,0-0.5-0.1-0.7-0.1c-0.7-0.1-1.4-0.2-2.1-0.4    l1.9-9.3C132.9,53.5,136.7,55.8,140.5,55.4z M127.9,31.2c1.4,0.5,2.8,0.9,4.3,1.2l-0.4,2C130.6,33.3,129.4,32.3,127.9,31.2z     M118.3,25c-0.5-0.4-1-0.8-1.5-1.3c-2.5-2.3-4.2-4.7-4.9-7.1c6.9-0.3,14,0.1,21.2,1.3C128.1,19.8,123.1,22.1,118.3,25z     M123.6,61.4c-0.1-0.1-0.2-0.2-0.3-0.3c-0.1-0.2-0.3-0.3-0.5-0.5l0,0c-0.2-0.2-0.3-0.3-0.5-0.5l0,0c-0.2-0.1-0.3-0.3-0.5-0.4l0,0    c-0.2-0.1-0.3-0.2-0.5-0.3l0,0c0.1,0,0.1,0,0.2,0.1c0.6,0.2,1.2,0.3,1.9,0.5c0.2,0,0.4,0.1,0.5,0.1c0.8,0.2,1.6,0.4,2.4,0.6    l-0.5,2.5l0,0C125.2,63.1,124.4,62.3,123.6,61.4z M173,94.3c-0.1,0-0.1,0.1-0.2,0.1l0,0c-0.8,0.3-1.6,0.5-2.3,0.7    c-0.1,0-0.2,0.1-0.4,0.1c-0.1,0-0.1,0-0.2,0.1c-0.4,0.1-0.8,0.2-1.3,0.3c-0.5,0.1-1,0.3-1.5,0.4s-1,0.2-1.4,0.3    c-0.5,0.1-1,0.2-1.6,0.3c-0.5,0.1-1,0.2-1.5,0.3c-0.5,0.1-1.1,0.2-1.6,0.3c-0.5,0.1-1,0.2-1.5,0.2c-0.5,0.1-1.1,0.2-1.6,0.2    c-0.5,0.1-1.1,0.1-1.6,0.2s-1,0.1-1.5,0.2c-0.6,0.1-1.2,0.1-1.8,0.1c-0.5,0-1,0.1-1.5,0.1c-0.6,0-1.3,0.1-1.9,0.1    c-0.4,0-0.9,0-1.3,0.1c-0.7,0-1.5,0-2.2,0c-0.4,0-0.7,0-1.1,0c-1,0-2,0-3,0c-0.3,0-0.5,0-0.8,0c-0.8,0-1.6-0.1-2.3-0.1    c-0.3,0-0.6,0-0.8,0c-1-0.1-2-0.1-3-0.2c-0.1,0-0.2,0-0.4,0c-0.9-0.1-1.8-0.2-2.6-0.3c-0.3,0-0.7-0.1-1-0.1    c-0.7-0.1-1.5-0.2-2.2-0.3c-0.3,0-0.6-0.1-0.9-0.1c-0.9-0.1-1.8-0.3-2.8-0.4l0,0l0,0c0-0.1,0-0.1-0.1-0.2l0,0    c0-0.1-0.1-0.1-0.1-0.2c0,0,0-0.1-0.1-0.1c0-0.1-0.1-0.1-0.1-0.2l-0.1-0.1c-0.1-0.1-0.2-0.2-0.3-0.3c0.6-0.9,0.4-3.2,0-5.1    c0,0,0,0,0.1-0.1c0.3-0.2,1.1-0.8,2-1.4l0,0c0.1-0.1,0.3-0.2,0.4-0.3l0,0c0.6-0.4,1.2-0.9,1.7-1.4l0.1-0.1    c0.1-0.1,0.1-0.1,0.2-0.2l0.1-0.1c0.1-0.1,0.1-0.1,0.2-0.2c0-0.1,0.1-0.1,0.1-0.2l0.1-0.1c0.1-0.1,0.1-0.2,0.2-0.3    c-0.9-2.2,2.9-4.6,3.5-5.1c-0.9,1.9,0,1.6,0.5,2c1.4-1.1,4.1-2.8,4.3-5c-0.6-0.3-1.1-0.9-1.2-1.1c-0.4,0.8-0.8,1.3-1.2,1.6    l-1.2,0.1c-0.1,0.1-0.3,0.1-0.4,0.1h-0.1c-0.1,0-0.2,0-0.2,0h-0.1c-0.1,0-0.2,0-0.2,0h-0.1c-0.1,0-0.2-0.1-0.3-0.1c0,0,0,0-0.1,0    c-0.1-0.1-0.2-0.2-0.3-0.2l-0.1-0.1c-0.1-0.1-0.2-0.1-0.2-0.2l-0.1-0.1c-0.1-0.1-0.2-0.2-0.2-0.2c-0.1-0.1-0.1-0.1-0.2-0.2    s-0.2-0.3-0.4-0.4l1.5-1.5c-0.2,0-0.3,0.1-0.5,0.1c-0.1,0-0.2,0.1-0.4,0.1c0,0,0,0-0.1,0s-0.2,0-0.3,0l0,0c-0.2,0-0.3,0-0.4,0l0,0    H131l0,0c0,0-0.1,0-0.1-0.1l0,0c0,0,0,0,0-0.1l0,0c0,0,0,0,0-0.1l0,0c0,0,0-0.1,0.1-0.1c0,0,0,0,0-0.1l0.1-0.1c0,0,0,0,0.1-0.1    l0.1-0.1c0,0,0.1,0,0.1-0.1c0,0,0.1-0.1,0.2-0.1c0,0,0.1,0,0.1-0.1c0.1,0,0.1-0.1,0.2-0.1c0,0,0.1,0,0.1-0.1    c0.1,0,0.1-0.1,0.2-0.1c0,0,0.1,0,0.1-0.1c0.1-0.1,0.2-0.1,0.3-0.2l0.1-0.1c2.1-1,4.2-1.9,5-4.4c0-0.1,0-0.2,0.1-0.2v-0.1    c0-0.1,0-0.1,0-0.2v-0.1c0-0.1,0-0.1,0-0.2V69c0-0.1,0-0.1,0-0.2v-0.1c0-0.1,0-0.1-0.1-0.2c0,0,0-0.1-0.1-0.1    c0-0.1-0.1-0.1-0.1-0.2c0,0,0-0.1-0.1-0.1c0-0.1-0.1-0.1-0.1-0.2c0,0,0,0-0.1-0.1s-0.1-0.2-0.2-0.2l0,0c-0.1-0.1-0.2-0.2-0.3-0.3    l0,0c-0.1-0.1-0.2-0.2-0.3-0.3c0,0,0,0-0.1,0c-0.1-0.1-0.2-0.1-0.3-0.2c0,0,0,0-0.1-0.1s-0.2-0.1-0.3-0.2c0,0,0,0-0.1-0.1    s-0.2-0.2-0.3-0.2c0,0,0,0-0.1,0c-0.1-0.1-0.2-0.2-0.3-0.3l0,0c-1.1-0.8-2.4-1.6-3.6-2.5l0,0c-0.1-0.1-0.3-0.2-0.4-0.3l0,0    c-0.1-0.1-0.2-0.2-0.4-0.3l0,0c-0.3-0.2-0.6-0.5-1-0.7c-0.1,0-0.1-0.1-0.2-0.1s-0.1-0.1-0.2-0.2s-0.1-0.1-0.2-0.2    c-0.1,0-0.1-0.1-0.2-0.1l-0.1-0.1l0,0l0.1-0.5c0.7,0.1,1.4,0.3,2.2,0.4c0.3,0,0.5,0.1,0.8,0.1c0.5,0.1,0.9,0.1,1.4,0.2    c0.3,0,0.6,0.1,0.9,0.1c0.4,0.1,0.9,0.1,1.3,0.2c0.3,0,0.6,0.1,0.9,0.1c0.4,0,0.9,0.1,1.3,0.1c0.3,0,0.6,0.1,0.9,0.1    c0.5,0,0.9,0.1,1.4,0.1c0.3,0,0.5,0,0.8,0.1c0.5,0,1,0,1.5,0.1c0.2,0,0.4,0,0.7,0c0.9,0,1.7,0,2.6,0c0.7,0,1.3,0,2,0    c0.3,0,0.6,0,0.9,0c0.5,0,1,0,1.5-0.1c0.3,0,0.7,0,1-0.1c0.5,0,0.9-0.1,1.4-0.1c0.3,0,0.7-0.1,1-0.1c0.4-0.1,0.9-0.1,1.3-0.2    c0.3,0,0.7-0.1,1-0.1c0.4-0.1,0.9-0.1,1.3-0.2c0.3-0.1,0.6-0.1,1-0.2s0.9-0.2,1.3-0.3c0.3-0.1,0.6-0.1,0.9-0.2    c0.5-0.1,1-0.2,1.4-0.4c0.2-0.1,0.5-0.1,0.7-0.2c0.7-0.2,1.4-0.4,2.1-0.6c0.5,1.2,1.5,1.9,1.4,3.5c0,0.2,0.1,0.3,0.2,0.4    c0.4,1.1,0.8,2.2,1.2,3.3c0.1,0.2,0.1,0.4,0.2,0.6c0.4,1.1,0.7,2.2,1.1,3.3c0.1,0.2,0.1,0.4,0.2,0.6c0.3,1.1,0.7,2.2,1,3.3    c0.1,0.2,0.1,0.4,0.2,0.6c0.3,1.2,0.6,2.3,0.9,3.5c0,0.1,0.1,0.2,0.1,0.3c0.3,1.2,0.6,2.3,0.8,3.5c0,0.1,0,0.2,0.1,0.2    c0.3,1.2,0.5,2.4,0.7,3.5c0,0.2,0.1,0.4,0.1,0.5c0.2,1.1,0.4,2.3,0.6,3.4c0,0.1,0,0.3,0.1,0.4c0,0.1,0,0.3,0.1,0.4    c0.1,0.8,0.3,1.7,0.4,2.5v0.1C173.2,94.2,173.1,94.2,173,94.3z M185.9,42.9c-0.7-0.7-1.4-1.4-2.1-2c0.3-1.7,0.3-3.4,0-5.1    c-0.1-0.8-0.3-1.6-0.5-2.4c-0.5-2-1.4-3.9-2.5-5.9C185,32.5,188,39.1,185.9,42.9z M179.6,28.2c0.7,1.2,1.2,2.3,1.6,3.5    c0.3,0.9,0.5,1.7,0.7,2.5c0.4,1.8,0.6,3.6,0.4,5.4c-1.2-1.1-2.5-2.2-3.8-3.3c1.3,0,2.2,0.1,2.3,0.1l0,0c-0.5-0.9-1.6-2.8-1.8-3    c-0.3-0.1-0.1-3-0.3-3.8c-1.9-0.5-2.8-2.5-3.1-2.7C177.3,28,178.7,27.8,179.6,28.2z M176.1,36.6c2.1,1.6,4.1,3.4,6,5.2    c-0.1,0.4-0.2,0.8-0.3,1.2l0,0c0,0,0,0,0,0.1c-0.1,0.4-0.2,0.8-0.4,1.2c0,0,0,0.1-0.1,0.1c-0.3,0.8-0.7,1.5-1.1,2.3l-0.1,0.1    c-0.2,0.4-0.4,0.7-0.6,1c0,0,0,0.1-0.1,0.1l0,0l0,0c-0.1-0.3-0.3-0.6-0.5-1c0,0,0-0.1-0.1-0.1c-0.3-0.7-0.7-1.4-1-2    c-0.2-0.3-0.3-0.6-0.5-0.9c0,0,0,0,0-0.1c-0.1-0.3-0.3-0.6-0.4-0.9c0-0.1-0.1-0.1-0.1-0.2c-0.2-0.3-0.3-0.6-0.4-0.9v-0.1    c-0.1-0.3-0.2-0.6-0.4-0.8c0-0.1,0-0.1-0.1-0.2c-0.1-0.3-0.2-0.6-0.3-0.9l0,0l0,0c-0.3-1-0.6-2-0.5-3    C175.4,36.7,175.8,36.6,176.1,36.6z M175.9,53.9C176,53.8,176,53.8,175.9,53.9c0.1,0,0.2,0.1,0.3,0.2c0.1,0.1,0.3,0.3,0.5,0.4    c0.1,0.1,0.1,0.1,0.2,0.2s0.2,0.2,0.4,0.3c0,0,0,0,0.1,0c0.3,0.2,0.6,0.5,0.9,0.7l0,0c0.2,0.1,0.3,0.3,0.5,0.4l0.1,0.1    c0.2,0.1,0.3,0.3,0.5,0.4c0.2-0.1,0.3-0.3,0.4-0.4l0.1-0.1c0.1-0.1,0.2-0.2,0.2-0.3l0.1-0.1c0.1-0.1,0.2-0.2,0.2-0.4    c0,0,0-0.1,0.1-0.1c0.1-0.2,0.1-0.3,0.2-0.5v-0.1c0-0.1,0.1-0.2,0.1-0.4c0-0.1,0-0.1,0-0.2s0-0.2,0.1-0.3c0-0.1,0-0.1,0-0.2    c0-0.2,0-0.3,0-0.5v-0.1c0-0.1,0-0.3,0-0.4s0-0.1,0-0.2s0-0.2,0-0.3s0-0.2,0-0.2c0-0.1,0-0.2-0.1-0.4c0-0.1,0-0.1,0-0.2    c0-0.2-0.1-0.3-0.1-0.5c0-0.1-0.1-0.2-0.1-0.2c0-0.1-0.1-0.2-0.1-0.3s-0.1-0.2-0.1-0.3v-0.1l0,0c0.4-0.6,0.8-1.2,1.2-1.8l0,0    c0.2-0.3,0.3-0.6,0.5-0.9c0,0,0,0,0-0.1c0.2-0.3,0.3-0.6,0.5-0.9l0,0c0,0.4,0,0.7,0,1.1c0,0.3,0,0.5,0,0.8c0,0.6,0,1.2,0.1,1.8    c0,0.3,0,0.6,0,0.8c0,0.5,0.1,1.1,0.1,1.6c0,0.3,0,0.6,0.1,0.9c0,0.4,0.1,0.8,0.1,1.2c0,0.3,0.1,0.7,0.1,1c0,0.4,0.1,0.8,0.1,1.2    c0,0.3,0.1,0.7,0.1,1c0,0.4,0.1,0.8,0.1,1.2c0,0.3,0.1,0.7,0.1,1c0,0.4,0.1,0.8,0.2,1.2c0,0.3,0.1,0.7,0.1,1    c0.1,0.7,0.2,1.3,0.3,2c0,0.1,0,0.3,0.1,0.4c0.1,0.6,0.2,1.2,0.3,1.7c0,0.2,0.1,0.4,0.1,0.6c0.3,1.3,0.5,2.6,0.9,4l0,0    c0,0.1,0,0.2,0.1,0.3c0.1,0.3,0.2,0.7,0.3,1c0.1,0.4,0.2,0.9,0.3,1.3c0.1,0.3,0.2,0.6,0.3,1c0.1,0.5,0.3,1,0.4,1.5    c0.1,0.3,0.2,0.5,0.2,0.8c0.2,0.8,0.5,1.5,0.8,2.3c0.1,0.2,0.1,0.3,0.2,0.5v0.1c0.1,0.2,0.1,0.3,0.2,0.5c0,0.1,0,0.1,0.1,0.2    c0.1,0.2,0.1,0.3,0.2,0.5c0,0.1,0.1,0.1,0.1,0.2c0.1,0.1,0.1,0.3,0.2,0.4c0,0.1,0.1,0.1,0.1,0.2l0,0c0,0,0,0,0,0.1    c0.1,0.2,0.2,0.4,0.3,0.7c0,0.1,0.1,0.1,0.1,0.2c0.1,0.2,0.2,0.5,0.4,0.7c0,0.1,0.1,0.1,0.1,0.2c0.1,0.2,0.3,0.5,0.4,0.7    c0,0.1,0.1,0.2,0.1,0.2c0.1,0.2,0.3,0.5,0.4,0.7l0.1,0.1l-0.1,0.1c-0.5,0.4-0.9,0.8-1.4,1.2l0,0c-0.5,0.4-1.1,0.8-1.6,1.2l0,0    c-0.5,0.4-1.1,0.7-1.6,1.1c-0.2,0.1-0.3,0.2-0.5,0.3c-0.4,0.3-0.8,0.5-1.2,0.8c-0.2,0.1-0.4,0.3-0.6,0.4c-0.4,0.2-0.8,0.4-1.2,0.7    c-0.2,0.1-0.5,0.3-0.7,0.4c-0.4,0.2-0.8,0.4-1.2,0.6c-0.3,0.1-0.5,0.2-0.8,0.4c-0.4,0.2-0.9,0.4-1.3,0.6c-0.2,0.1-0.5,0.2-0.7,0.3    c-0.7,0.3-1.4,0.6-2.1,0.8l-0.7,0.3c0-0.1,0-0.3-0.1-0.4l0,0c-0.1-0.4-0.1-0.8-0.2-1.2c-0.1-0.9-0.3-1.9-0.5-2.8    c-0.9-4.9-2-9.9-3.4-14.7c0,0,0,0,0-0.1c-0.4-1.3-0.7-2.5-1.1-3.7c-1.1-3.6-2.4-7.1-3.8-10.6c-0.1-0.2-0.2-0.5-0.3-0.7    c0.5-0.2,1-0.4,1.4-0.5c0.1,0,0.2-0.1,0.4-0.2c0.3-0.1,0.7-0.3,1-0.4c0.1-0.1,0.3-0.1,0.4-0.2c0.3-0.1,0.6-0.3,1-0.4    c0.1-0.1,0.2-0.1,0.4-0.2c0.3-0.2,0.6-0.3,0.9-0.5c0.2-0.1,0.3-0.2,0.5-0.2c0.2-0.1,0.4-0.2,0.6-0.3c0.2-0.1,0.4-0.2,0.6-0.3    c0.2-0.1,0.3-0.2,0.5-0.3s0.5-0.3,0.7-0.4c0.1-0.1,0.2-0.2,0.4-0.2c0.3-0.2,0.7-0.5,1-0.7C175.4,54.3,175.7,54.1,175.9,53.9z     M160.5,24.8L160.5,24.8c-1.7-0.8-3.4-1.5-5.1-2.2c-0.3-0.6-0.7-1.3-1.3-2.2C155.6,21.7,158.4,23.2,160.5,24.8z M159.5,26.3    c-0.5,0.6-1.1,1.2-1.7,1.7c-1.3-1.8-1.4-2.5-1.6-3.2C157.3,25.3,158.4,25.8,159.5,26.3z M154.4,31.3c0.1,0,0.2-0.1,0.3-0.2    c0,0,0.1,0,0.1,0.1c0.1,0.1,0.2,0.1,0.3,0.2c0.1,0,0.1,0.1,0.2,0.1c0.1,0.1,0.2,0.1,0.3,0.2l0.1,0.1c0.1,0.1,0.3,0.1,0.4,0.2    c0,0,0.1,0,0.1,0.1c0.1,0,0.2,0.1,0.3,0.1s0.1,0,0.2,0.1c0.1,0,0.1,0.1,0.2,0.1s0.1,0,0.2,0.1c0.1,0,0.1,0,0.2,0.1    c0.1,0,0.1,0,0.2,0s0.1,0,0.2,0h0.1c0.1,0,0.1,0,0.2,0h0.1c0.1,0,0.2,0,0.2,0s0,0,0.1,0s0.1,0,0.1-0.1l0,0c0,0,0.1-0.1,0.1-0.2    c0,0,0,0,0-0.1s0-0.1,0-0.2c0,0,0,0,0-0.1s0-0.2-0.1-0.3c0,0,0,0,0-0.1s-0.1-0.2-0.2-0.4V31c-0.1-0.2-0.2-0.3-0.3-0.5l0,0    c-0.1-0.2-0.2-0.4-0.4-0.6c0,0,0,0,0-0.1c0.1-0.1,0.2-0.2,0.4-0.3c1.1-0.8,2-1.7,2.8-2.6c0.8,0.4,1.5,0.8,2.3,1.2    c0,0.4,0,0.8-0.2,1.2c0,0.1,0.1,0.3,0.2,0.4l0,0l0.1,0.1c0,0,0,0,0,0.1c0.1,0.2,0.2,0.3,0.4,0.5l0,0c0,0.1,0.1,0.1,0.1,0.2    c0,0,0,0,0,0.1s0.1,0.1,0.1,0.2c0,0,0,0,0,0.1s0.1,0.2,0.1,0.2c-0.5-0.2-1-0.3-1.6-0.4h-0.1l0,0l0,0l0,0c0,0,0,0,0,0.1    c0,0,0,0,0,0.1l0.1,0.1c0,0,0,0,0.1,0.1c0,0,0.1,0.1,0.1,0.2c0,0,0,0,0.1,0.1s0.1,0.1,0.2,0.2l0,0c0.2,0.2,0.4,0.4,0.6,0.6    l0.1,0.1c0.1,0.1,0.1,0.1,0.2,0.2c0.1,0.1,0.1,0.1,0.2,0.2c0.1,0.1,0.1,0.1,0.2,0.2c0.1,0.1,0.1,0.1,0.2,0.2    c0,0.1,0.1,0.1,0.1,0.2c0.1,0.1,0.1,0.2,0.2,0.2l0.1,0.1c0.1,0.1,0.1,0.2,0.2,0.2L165,34c0.1,0.1,0.1,0.2,0.2,0.2l0.1,0.1    c0.1,0.1,0.1,0.2,0.2,0.3c0,0,0,0.1,0.1,0.1c0.1,0.1,0.1,0.2,0.2,0.4c-0.3,0.3,3,6.3,3.6,9.3c0.1-0.1,0.3-0.2,0.4-0.2    c0,0,0.1,0,0.1-0.1c0.1,0,0.2-0.1,0.2-0.1c0.1,0,0.1,0,0.2-0.1c0.1,0,0.1-0.1,0.2-0.1c0,0,0.1,0,0.1-0.1c0.1,0,0.1,0,0.2-0.1h0.1    c0.1,0,0.1,0,0.2,0h0.1c0.1,0,0.1,0,0.2,0h0.1c0.1,0,0.2,0,0.2,0l0,0l0,0c0.1,0,0.2,0,0.3,0c0,0,0,0,0.1,0s0.2,0.1,0.3,0.1l0,0    c0.1,0,0.1,0.1,0.2,0.1l0,0c0.1,0.1,0.1,0.1,0.2,0.2l0,0c0,0.1,0.1,0.1,0.1,0.2l0,0c0,0.1,0.1,0.2,0.1,0.3c0,0,0,0,0,0.1    s0.1,0.2,0.1,0.3l0,0c0,0.1,0.1,0.2,0.1,0.3l0,0c0.1,0.4,0.2,0.8,0.2,1.2c0,0.1,0,0.2,0,0.2v0.1c0,0.1,0,0.2,0.1,0.3v0.1    c0,0.1,0.1,0.2,0.1,0.3l0,0c0,0.1,0.1,0.2,0.1,0.3c0,0,0,0,0,0.1s0.1,0.2,0.1,0.3c0.3,0.5,0.1,2.9,0.9,4.2    c0.1,0.1,0.2,0.2,0.2,0.4c-0.2,0.1-0.4,0.3-0.5,0.4c-0.2,0.2-0.5,0.4-0.8,0.6s-0.7,0.5-1,0.7c-0.1,0.1-0.2,0.1-0.3,0.2    c-0.3,0.2-0.5,0.3-0.8,0.5c-0.1,0.1-0.2,0.1-0.3,0.2c-0.3,0.1-0.5,0.3-0.8,0.4c-0.1,0.1-0.2,0.1-0.4,0.2c-0.3,0.1-0.5,0.3-0.8,0.4    c0,0-0.1,0-0.1,0.1c-0.1,0-0.2,0.1-0.3,0.1c-0.2,0.1-0.4,0.2-0.6,0.3c-0.2,0.1-0.4,0.2-0.6,0.2c-0.2,0.1-0.4,0.2-0.5,0.2    c-0.2,0.1-0.5,0.2-0.7,0.3c-0.1,0.1-0.3,0.1-0.4,0.2c-0.4,0.2-0.8,0.3-1.2,0.4c-0.5-1.2-1.1-2.4-1.6-3.6c-0.4-0.8-0.7-1.6-1.1-2.4    c-0.1-0.2-0.2-0.4-0.3-0.6c-0.3-0.7-0.7-1.4-1.1-2.2c-0.1-0.3-0.3-0.5-0.4-0.8c-0.5-0.9-0.9-1.8-1.4-2.7c-0.4-0.7-0.8-1.4-1.2-2.1    c-2.2-3.9-4.6-7.6-7.2-11.2c0.7-0.1,1.3-0.4,2-0.6c0.4-0.1,0.8-0.3,1.2-0.4C154,31.5,154.2,31.4,154.4,31.3z M145.9,16    c0.4-0.1,0.9-0.1,1.3-0.2c1.7,0.2,3.1,0.5,3.1,0.6c-1.5,0.2-3.8,1-4.9,1.6C145.7,17.1,145.9,16.4,145.9,16z M146.2,25.3    L146.2,25.3c0.1,0.1,0.3,0.2,0.4,0.3c0.1,0,0.1,0.1,0.2,0.1c0.1,0.1,0.1,0.1,0.2,0.2c0.9,0.7,2,1.5,3.2,2.3    c0.2,0.2,0.5,0.3,0.7,0.5c0.1,0,0.1,0.1,0.2,0.1c0.2,0.2,0.4,0.3,0.7,0.5c0.1,0,0.1,0.1,0.2,0.1c0.2,0.2,0.5,0.3,0.7,0.5h0.1    c0.2,0.2,0.5,0.3,0.7,0.5l0,0l0,0c0,0,0,0-0.1,0c-0.4,0.2-0.9,0.4-1.4,0.5c-0.7,0.3-1.4,0.4-2.2,0.6c-0.6-0.9-1.3-1.7-1.9-2.5    c-0.1-0.1-0.2-0.3-0.3-0.4c-0.6-0.8-1.3-1.6-2-2.4l-0.1-0.1c-0.8-1-1.7-2-2.6-2.9c1,0.5,1.9,0.9,1.9,0.9    C144.6,24,145.2,24.5,146.2,25.3z M143.8,16.4c-0.6,0.5-1.3,1.1-1.9,1.7c-0.8-0.2-1.6-0.4-2.4-0.6C140.9,17,142.4,16.7,143.8,16.4    z M138.3,14.2c0.6,0.7,1.1,1.3,1.3,1.6c-0.6,0.2-1.2,0.3-1.7,0.5L138.3,14.2z M144.1,26.8L144.1,26.8L144.1,26.8    c0.7,0.8,1.3,1.6,2,2.3c0.1,0.1,0.2,0.3,0.3,0.4c0.6,0.8,1.3,1.6,1.9,2.4c-0.5,0.1-1,0.2-1.6,0.2c-0.2,0-0.4,0-0.6,0.1    c-0.3,0-0.7,0.1-1,0.1c-0.2,0-0.5,0-0.7,0c-0.3,0-0.6,0-0.9,0c-0.2,0-0.5,0-0.7,0c-0.3,0-0.6,0-0.9,0s-0.5,0-0.8,0    c-0.1,0-0.3,0-0.4,0l0,0c-2-0.1-4.1-0.3-6.1-0.6l2.5-12.2C139.6,21.8,141.9,24.2,144.1,26.8z M130.4,9.6c0.8,0.9,2.3,1.1,2.8,2.1    c0.8-0.7,2-0.2,3.2,0.6l-0.8,3.7c-1.1-1-2.3-1.9-3.4-2.8c-0.9-0.6-1.7-1.3-2.5-1.8c-0.3-0.2-0.7-0.5-1-0.7    C129.3,10.4,129.9,10.1,130.4,9.6z M113,14.3c2.6-1.2,10.5-2.7,11.3-4.2c0.1,0.1,0.2,0.1,0.4,0.2c0.5,0.6,1.1,1.8,1.1,1.9    c0.4-0.2,0.7-0.4,1.1-0.6c0.6,0.4,1.1,0.7,1.7,1.1c1.1,0.7,2.2,1.5,3.2,2.3c-0.5,0.3-1.1,0.5-1.8,0.7c-6.3-0.8-12.5-1.1-18.5-0.8    c0-0.3-0.1-0.7-0.1-1L113,14.3z M106.4,12.7l3.8,0.9c0,0.5,0,0.9,0.1,1.4c-3.6,0.2-7.2,0.7-10.7,1.3c-0.4-0.1-0.8-0.2-1-0.5    C101.3,13.1,102.9,12.2,106.4,12.7z M110.6,16.7c0.8,2.7,2.6,5.3,5.3,7.8c0.4,0.4,0.9,0.7,1.4,1.1c-3.8,2.3-7.5,4.8-11.1,7.5    c-0.6,0.5-1.3,1-1.9,1.5c-3.5,2.8-6.9,5.7-10.1,8.9c-2.3-2.2-4.2-4.4-5.7-6.7c-0.2-0.5-0.4-0.8-0.7-1.1c-0.3-0.4-0.5-0.9-0.7-1.3    c-0.7-1.3-1.2-2.6-1.6-3.8c1.6-1.7,2.9-4,4.1-6c-0.5,0-1.1,0.5-1.5,0.1c1.5-1.6,4.7-3.9,8.2-5.9C100.9,17.7,105.7,17,110.6,16.7z     M57.4,35.5c5.1-6.8,11.1-12.8,17.9-17.7c0.8-0.6,1.6-1.1,2.4-1.7c0.2-0.1,0.4-0.3,0.7-0.4c0.6-0.4,1.3-0.8,1.9-1.2    c0.1-0.1,0.3-0.2,0.4-0.2l0,0c0.2-0.1,0.3-0.2,0.5-0.3s0.4-0.2,0.6-0.4c0.1,0,0.2-0.1,0.2-0.1l0,0c0,0,0,0.1-0.1,0.2    c2.1-0.1,3.9-0.6,5.6-1.6c0.5-0.3,1.1-0.6,1.6-1c0,0,0,0-0.1,0.1l0,0l0,0c-0.3,0.3-0.6,0.6-0.9,1c-0.1,0.1-0.1,0.1-0.2,0.2    c-0.3,0.3-0.6,0.7-0.9,1c-0.2,0.3-0.5,0.6-0.7,0.9c-0.2,0.4-0.5,0.7-0.7,1.1l0,0c-1.2,1.5-2.3,2.7-3.7,4.2    c1.4,1.5-0.4,1.1-0.9,2.1c-0.1,0-0.1,0-0.2,0.1c-0.5-0.6-1.3-1.3-2.5-1.3l0,0h-0.1h-0.1H78c0,0,0,0-0.1,0s-0.1,0-0.2,0    s-0.2,0-0.3,0c-0.1,0-0.1,0-0.2,0s-0.3,0.1-0.4,0.1h-0.1c-0.2,0-0.3,0.1-0.5,0.2c-0.1,0-0.1,0.1-0.2,0.1c-0.1,0.1-0.3,0.1-0.4,0.2    c-0.1,0-0.1,0.1-0.2,0.1c-0.1,0.1-0.3,0.1-0.4,0.2c-0.1,0-0.1,0.1-0.2,0.1c-0.2,0.1-0.4,0.3-0.7,0.4c0.1,0.1,0.1,0.3,0.2,0.4    c0,0,0,0,0,0.1c0.3,0.6,0.8,1.3,0.9,1.5c1.5-0.6,1.1-0.2,0.9,0C76,23.9,76,24,75.9,24c-2.4,1.2-4.7,2.5-6.9,3.9s-4.4,3-6.4,4.6    c-0.5,0.4-0.9,0.7-1.4,1.1l-0.1,0.1l0,0c-0.1,0.1-0.1,0.1-0.2,0.2c-0.5,0.5-1.1,0.9-1.6,1.4c-1,0.9-2,1.8-2.9,2.8    C56.7,37.3,57.1,36.4,57.4,35.5z" />
            <path class="st0"
                d="M236.1,101.6c-3-6.2-8.5-12.6-16.4-19c-3.6-2.9-7.6-5.7-11.8-8.3c0.5,4.1,0.9,7.9,1.2,10.9    c4.3,4.3,7.3,8.5,8.8,12.6c1.4,3.8,1.6,7.5,0.6,10.9l0,0c-0.5,1.5-1.1,3.1-2.1,4.5c-3.2,4.9-9.3,9.2-18.2,12.4    c-1,0.4-2.2,0.8-3.4,1.1l0,0l0,0c-1.3,0.3-2.6,0.7-4,1c0,0,0,0.1-0.1,0.1c-1.1,0.3-2.3,0.5-3.4,0.8l0,0l0,0l0,0    c-0.1,0-0.1,0-0.2,0l0,0c-0.2,0.1-0.5,0.1-0.7,0.1l0,0c-0.1,0-0.2,0-0.3,0.1l0,0H186c-7.3,1.6-16.7,2.8-32.2,2.4    c-2.2,0-4.4-0.1-6.6-0.2c-4.4-0.2-5.6-0.3-5.1-0.3c-7.1-0.5-14.5-1.4-21.9-2.7c-0.3-0.1-0.7-0.1-1-0.2l0,0    c-0.9-0.2-1.8-0.3-2.7-0.5c-1.2-0.2-2.5-0.5-3.7-0.7l0,0l0,0c-0.9-0.2-1.7-0.3-2.6-0.5c-2.9-0.6-5.8-1.3-8.7-2l0,0    c-2.1-0.5-4.1-1-6.1-1.6l0,0c-0.7-0.2-1.4-0.4-2.2-0.6l0,0c-1.9-0.5-3.8-1.1-5.6-1.7l0,0c-0.7-0.2-1.4-0.4-2.1-0.7l0,0    c-7.4-2.4-14.4-5-20.9-7.9c-2-0.9-3.9-1.8-5.8-2.7c0-0.1,0-0.1,0-0.2c-0.5-0.3-1-0.5-1.6-0.8c0,0,0,0,0,0.1v0.1l0,0l0,0    c0,0.1,0,0.2,0,0.3c0-0.1,0-0.2,0-0.3c-0.5-0.3-1-0.5-1.5-0.8c-0.1-0.1-0.2-0.2-0.2-0.3c-1.4-0.7-2.7-1.4-4.1-2.2    c0.1,0.1,0.1,0.2,0.2,0.2l0,0c-2.5-1.4-4.9-2.8-7.2-4.3c-1.8-1.1-3.6-2.3-5.3-3.5c-1.8-1.2-3.3-2.6-4.7-4    c-0.3-0.3-0.6-0.5-0.9-0.8C26.4,86,22.4,79.5,21.6,73.2c-0.1-0.8-0.1-1.5-0.1-2.2c0-4.9,2.3-9.1,6.2-12.7s9.6-6.6,16.4-8.8    c1.3-2.8,2.7-5.6,4.3-8.5c-5.7,0.8-11.1,1.9-16,3.2c-9.2,2.5-17,6-22.6,10.4c-2.9,2.3-5.2,4.8-6.9,7.6c-1.8,3-2.9,6.4-2.9,10    c-0.1,7.6,4,15.6,12,23.7c8.1,8.2,20.1,16.2,35,23.3l0,0c0,0.1,0.1,0.1,0.1,0.2c1.4,0.6,2.7,1.2,4.1,1.8l0,0    c0.4,0.2,0.9,0.4,1.3,0.6c19.3,8.1,41.8,14.6,65.2,18.7c23.6,4.1,46.4,5.3,66.2,3.7c13-1.3,23.8-3.8,32.4-7.3    c10.6-4.3,17.4-10,20.5-16.5c0.6-1.2,1-2.4,1.3-3.6C239.4,112.4,238.7,107.1,236.1,101.6z" />
        </g>
        <path class="st0"
            d="M539.7,95.4c-7.4,0-12.9,1.7-18.6,5.7c0-0.7,0-5.1,0-5.1h-7.9v32.1h8.1v-22.3c7.3-4.1,11.3-3.7,18.4-2.9h0.8   v-7.6L539.7,95.4L539.7,95.4z" />
        <path class="st0"
            d="M297.1,103.5c5.4-2.4,9.2-4.1,17.7-4.1c7.7,0,11,3.1,11,10.3c0,0,0,17.8,0,18.3h4c0-0.5,0-18.2,0-18.2   c0-4.7-1.2-8.2-3.5-10.4c-2.1-2-5.3-2.9-9.6-3c-9.2-0.1-16.5,2.1-21.5,4.8l-0.8,0.4c0,0,0-3.8,0-4.3h-3.9v30.6h4.1   c0-0.5,0-23.4,0-23.4l1-0.4L297.1,103.5z" />
        <path class="st0"
            d="M389.6,126.3c-11.2,0-17.3-3.5-18.7-10.6l-0.4-1.9c0,0,38.6,0,39.1,0v-0.9c0-4.8-1.3-8.6-4-11.2   c-3.5-3.5-9.2-5.2-17.5-5.2c-13.4,0-21.8,6.2-21.8,16.2c0,5.1,2,9.1,6.1,11.9c4,2.8,9.8,4.3,17.2,4.3s13.2-1.4,17.7-4.2l-1.8-2.3   C401.3,125,395.9,126.3,389.6,126.3z M371,109.5c1.3-7,7-10.4,17.3-10.4c7.2,0,15.7,1.2,17.2,10.5l0.3,1.9h-35.2L371,109.5z" />
        <path class="st0"
            d="M453.5,126.3c-11.2,0-17.3-3.5-18.7-10.6l-0.4-1.9c0,0,38.6,0,39.1,0v-0.9l0,0c0-11.1-7-16.4-21.5-16.4   c-6.6,0-12.1,1.5-16,4.4c-3.8,2.8-5.8,6.9-5.8,11.8c0,5.1,2,9.1,6,11.9s9.8,4.3,17.2,4.3s13.2-1.4,17.6-4.2l-1.8-2.3   C465.1,125,459.7,126.3,453.5,126.3z M434.8,109.5c1.3-7,7-10.4,17.3-10.4c7.2,0,15.7,1.2,17.2,10.5l0.3,1.9h-35.2L434.8,109.5z" />
        <path class="st0"
            d="M627,96c0,0-16.1,21.5-16.5,22c-0.4-0.5-16.6-21.9-16.6-21.9l-9.7-0.1h-0.5l26.3,33.3h0.7L636.2,96H627z" />
        <rect x="276.1" y="82.4" class="st0" width="4.1" height="45.6" />
        <path class="st0"
            d="M347.1,116.2v-16c0,0,14.4,0,14.9,0v-2.8c-0.5,0-14.9,0-14.9,0s0-11.5,0-12h-4c0,0.5,0,12,0,12s-8.2,0-8.7,0   v2.8c0.5,0,8.7,0,8.7,0v16c0,8.2,4.6,12.7,13,12.7c3.6,0,5.1-0.2,6.7-0.2c0,0,0-2.6,0-3.1c-1.2,0.2-2.8,0.4-5.8,0.4   C348.2,125.9,347.1,121,347.1,116.2z" />
        <rect x="418.6" y="82.5" class="st0" width="4.1" height="45.5" />
        <path class="st0"
            d="M467.9,82.4v7.4c0,0,21.8,0,22.3,0c0,0.5,0,38.3,0,38.3h8.5c0,0,0-37.8,0-38.3c0.5,0,22.3,0,22.3,0v-7.4H467.9   z" />
        <path class="st0"
            d="M585.1,127.2c-0.9-1.3-1.4-4.4-1.4-9.2v-8.8c0-9.7-5.7-14-18.3-14c-8.5,0-14.5,1.3-19.4,2.5l-0.7,0.2l1.2,6.6   l0.7-0.2c6.3-1.4,11.8-2.1,16.9-2.1c8,0,10.9,1.3,11.4,5.3c-20.1,0.9-33.4,1.6-33.4,11.5c0,6.8,5.2,10.1,16,10.1   c7.1,0,13-1.4,18.3-4.2c0.3,1.5,0.6,2.5,0.9,3l0.2,0.3h7.7v-0.8L585.1,127.2z M558.2,122.4c-5.6,0-8-1-8-3.4   c0-3.6,5.1-4.4,25.4-5.5v5.1C572.5,120.3,567.3,122.4,558.2,122.4z" />
        <path class="st0"
            d="M677.8,112.2c0-5.6-1.8-10-5.5-12.8c-3.6-2.8-9.1-4.3-16.2-4.3c-13.5,0-22,6.5-22,16.9   c0,10.7,8.5,16.9,23.3,16.9c8,0,14.1-1.6,18.7-5l0.6-0.4l-4.3-5.5l-0.6,0.4c-3.7,2.5-8.5,3.8-14.5,3.8c-8.3,0-13-2.3-14.4-7   c0.8,0,34.6,0,34.6,0L677.8,112.2z M669.3,108.7H643c1.3-4.6,5.6-6.8,13.2-6.8C664.1,101.8,668.1,104,669.3,108.7z" />
        <rect x="683.4" y="82.4" class="st0" width="8.1" height="45.7" />
    </g>
</svg>